<svg xmlns="http://www.w3.org/2000/svg" width="716.6" height="665.9">
  <g data-name="Groupe 6">
    <g data-name="Groupe 1" transform="translate(-578.3 -268)">
      <path data-name="Tracé 69" d="M852.4 664.5v248.7h174.2V664.5a8.4 8.4 0 0 0-5.9-8 7.7 7.7 0 0 0-2.5-.4H860.8a8.4 8.4 0 0 0-8.4 8.4Zm68 85.5a18.6 18.6 0 1 1 37.2 0v28.8a18.6 18.6 0 1 1-37.2 0Z" fill="#f3f4f6"/>
      <path data-name="Tracé 70" d="M851.8 905.2v24a4.7 4.7 0 0 0 4.7 4.7h166a4.7 4.7 0 0 0 4.6-4.7v-24Z" fill="#d1d5db"/>
      <path data-name="Tracé 71" d="M578.3 289.8v454a21.8 21.8 0 0 0 21.8 22h673a21.8 21.8 0 0 0 21.7-22v-454A21.9 21.9 0 0 0 1273 268H600.1a21.9 21.9 0 0 0-21.8 21.8Z" fill="#d1d5db"/>
      <path data-name="Union 1" d="M605.7 750a11.7 11.7 0 0 1-11.6-11.7V295.5a11.7 11.7 0 0 1 11.6-11.7h661.7a11.7 11.7 0 0 1 11.7 11.6v442.9a11.7 11.7 0 0 1-11.7 11.7Z" fill="#fff"/>
      <path data-name="Tracé 73" d="M1246 344.8H626.7a2.5 2.5 0 1 1 0-5H1246a2.5 2.5 0 1 1 0 5Z" fill="#f3f4f6"/>
      <ellipse data-name="Ellipse 12" cx="14.4" cy="14.8" rx="14.4" ry="14.8" transform="translate(654.5 297.8)" fill="#4b5563"/>
      <ellipse data-name="Ellipse 13" cx="14.4" cy="14.8" rx="14.4" ry="14.8" transform="translate(704.4 297.8)" fill="#4b5563"/>
      <ellipse data-name="Ellipse 14" cx="14.4" cy="14.8" rx="14.4" ry="14.8" transform="translate(754.2 297.8)" fill="#4b5563"/>
      <path data-name="Tracé 74" d="M1216 301.4h-35.5a2.7 2.7 0 0 0 0 5.4h35.4a2.7 2.7 0 1 0 0-5.4Z" fill="#4b5563"/>
      <path data-name="Tracé 75" d="M1216 311.5h-35.5a2.7 2.7 0 0 0 0 5.3h35.4a2.7 2.7 0 1 0 0-5.3Z" fill="#4b5563"/>
      <path data-name="Tracé 76" d="M1216 321.5h-35.5a2.7 2.7 0 0 0 0 5.4h35.4a2.7 2.7 0 1 0 0-5.4Z" fill="#4b5563"/>
    </g>
    <g data-name="Groupe 5" transform="translate(-930.6 -437)">
      <path data-name="Tracé 82" d="M1493.2 677c-16-13-32.2 13.5-32.2 13.5v12.9l-1.5-10.9-6.7 13.5-.6-2.6c-4.6 4.7-.5 27-.5 27s-2-9.4-3-12l-2.7-6.2c-.5 3.1-5.7 7.3-8.8 10.9s-3.6 10.4-3.6 10.4l-1-1.6c-10.4 10.4-2.1 41.4-2.1 41.4-14.5-16-2.6-36.7-2.6-36.7-2.6.5-6.7 7.7-6.7 7.7s-12.5 17.7-11.4 23.9-1.6 9.3-1.6 9.3a14.7 14.7 0 0 0-3.6 11.4l-1-2c-4.6 4-3.3 18-3.2 19l8.9 21.2-6.2-7.6h-.6v4.6c-3.6 1 1.6 5.2 1.6 5.2-2.1 3.1-1 4.2-1 4.2v1s0-.5 1.5 0 0 3.6 0 3.6c0 3.1 5.2.5 5.2.5l3.9 1.5a16.3 16.3 0 0 0 4.9 1.1c2 0 1.5-1 1.5-1.5s3.6-.5 3.6-1.6 1-.5 1.6-1-1-2-1-2 4.1.4 3.6 0a2 2 0 0 1-.3-.6l-10.5-.7 12.7-4c-.8-.7-.4-2-.4-2 8.3-1 15-7.8 15-9.4s10-25.4 10-25.4l-1.6-1 2-1.6c6.2-3.6 8.3-15.5 8.3-15.5-1.5 2.6-5.7 3.6-5.7 3.6s-22.3 9.4-20.7 6.2 19.2-9.3 19.2-9.3c15-4.1 19.7-29 19.7-29l-24.4 13 19.2-11.4c8.8-7.8 12.4-20.8 12.4-20.8l-20.2 8.8 20.2-10.3 13-17.6s13.4-18.2-2.6-31.1Z" fill="#4b5563"/>
      <path data-name="Tracé 83" d="M1118.6 859.6a45.3 45.3 0 0 1 13.3-1.5 45.6 45.6 0 0 0 0-16.8 45.7 45.7 0 0 0-12.2 7.4 43.7 43.7 0 0 1-1 11Z" fill="#f3f4f6"/>
      <path data-name="Tracé 84" d="M1137.3 859v.2a43 43 0 0 1-16.4 21.2 34.3 34.3 0 0 1-11.4 4.2c4 .4 15.2 1 24.6-4.6 11.7-7 16.1-21 16.1-21a45.5 45.5 0 0 0-12.9 0Z" fill="#f3f4f6"/>
      <path data-name="Tracé 85" d="M1101 885.4a44.3 44.3 0 0 1-5.8-.4l-.5.2v-.3h-.7l.2-.6.2-.7a42 42 0 0 1 3.4-25.5 43 43 0 0 1 20.4-17.3l.6-.2.1.6a46.3 46.3 0 0 1-.3 18.4 46.4 46.4 0 0 1 18.2-1h.6l-.2.6a43 43 0 0 1-16.3 21.2c-6.8 4.1-14.6 5-19.9 5Zm-5.6-1.4c2.6.4 14.9 1.6 25-4.5 10-6 14.7-17.3 15.7-20a45.2 45.2 0 0 0-18 1.4l-1 .3.3-1a45.1 45.1 0 0 0 .6-18.2 41.4 41.4 0 0 0-19.3 16.6 41 41 0 0 0-3.3 25V883.9Z" fill="#4b5563"/>
      <path data-name="Tracé 86" d="m1188.6 885-112 .4v-1l112-.5Z" fill="#4b5563"/>
      <path data-name="Tracé 88" d="M1494.6 679.2c-2.8 3-62.3 70-85.1 179l-.8 3.7s-2.6 3.7-3 0c0 0 .2-1.5.9-4.4 4.9-21.4 29.1-116.1 88-178.3Z" fill="#1f2937"/>
      <path data-name="Tracé 89" d="m1409.5 858.2-.8 3.7s-2.6 3.7-3 0c0 0 .2-1.5.9-4.4a7.1 7.1 0 0 1 2.9.7Z" fill="#4b5563"/>
      <circle data-name="Ellipse 15" cx="10.1" cy="10.1" r="10.1" transform="translate(1386.2 700.7)" fill="#1f2937" opacity=".4"/>
      <circle data-name="Ellipse 16" cx="7.1" cy="7.1" r="7.1" transform="translate(1399 720.3)" fill="#1f2937" opacity=".4"/>
      <circle data-name="Ellipse 17" cx="7.1" cy="7.1" r="7.1" transform="translate(1425.9 841.2)" fill="#1f2937" opacity=".4"/>
      <g data-name="Groupe 3">
        <g data-name="Groupe 2" fill="#f3f4f6">
          <path data-name="Tracé 77" d="M1260 863h-5V572a2.5 2.5 0 1 1 5 0Z"/>
          <path data-name="Tracé 78" d="m1295.7 604.7-71.8 7.6a2.5 2.5 0 0 1-2.8-2.2l-2.2-20.9a2.5 2.5 0 0 1 2.2-2.7l72-7.6a2.5 2.5 0 0 1 1.2.2l19.6 8.4a2.5 2.5 0 0 1 .5 4.3l-17.5 12.5a2.5 2.5 0 0 1-1.2.4Z"/>
          <path data-name="Tracé 79" d="m1286.9 646.6-72-5a2.5 2.5 0 0 1-1.3-.4l-17.9-11.9a2.5 2.5 0 0 1 .3-4.3l19.4-9a2.5 2.5 0 0 1 1.2-.3l72.1 5a2.5 2.5 0 0 1 2.3 2.7l-1.4 21a2.5 2.5 0 0 1-2.7 2.2Z"/>
          <path data-name="Tracé 80" d="M1294.8 677.4h-72.3a2.5 2.5 0 0 1-1.2-.3l-18.7-10.6a2.5 2.5 0 0 1 0-4.3l18.7-10.4a2.5 2.5 0 0 1 1.2-.4h72.3a2.5 2.5 0 0 1 2.5 2.5v21a2.5 2.5 0 0 1-2.5 2.5Z"/>
          <path data-name="Tracé 81" d="m1217.5 709.7 72.1 3.8a2.5 2.5 0 0 0 1.3-.3l19.2-9.5a2.5 2.5 0 0 0 .2-4.3l-18.1-11.4a2.5 2.5 0 0 0-1.2-.4l-72.2-3.8a2.5 2.5 0 0 0-2.6 2.4l-1 21a2.5 2.5 0 0 0 2.3 2.5Z"/>
        </g>
        <path data-name="Union 3" d="M1188.6 884.5V733.2l-37.6-2a2.5 2.5 0 0 1-2.3-2.5l1-21a2.5 2.5 0 0 1 2.7-2.3l36.2 1.9v-8.4h-32.5a2.5 2.5 0 0 1-1.2-.3l-18.7-10.5a2.5 2.5 0 0 1 0-4.4l18.7-10.4a2.5 2.5 0 0 1 1.2-.3h32.5v-7l-40.2-3a2.5 2.5 0 0 1-1.2-.3l-18-11.8a2.5 2.5 0 0 1 .4-4.3l19.4-9.1a2.5 2.5 0 0 1 1.2-.3l38.4 2.7v-9.4l-31.2 3.3a2.5 2.5 0 0 1-2.7-2.2l-2.2-20.8a2.5 2.5 0 0 1 2.2-2.8l34-3.5v-11a2.5 2.5 0 1 1 4.9 0V604l33-3.4a2.5 2.5 0 0 1 1.2.2l19.7 8.4a2.5 2.5 0 0 1 .4 4.3l-17.5 12.4a2.5 2.5 0 0 1-1.1.5l-35.7 3.7v10.3l28.7 2a2.5 2.5 0 0 1 2.3 2.6l-1.5 21a2.5 2.5 0 0 1-2.7 2.2l-26.8-1.8v6.7h34.8a2.5 2.5 0 0 1 2.4 2.5v21a2.5 2.5 0 0 1-2.4 2.4h-34.8v8.6l31 1.7a2.5 2.5 0 0 1 1.1.3l18.1 11.4a2.5 2.5 0 0 1-.2 4.4l-19.2 9.5a2.5 2.5 0 0 1-1.2.3l-29.6-1.6v151Z" fill="#fff" stroke="#4b5563"/>
        <path data-name="Tracé 87" d="m1407.7 864-214 .5v-1l214-.5Z" fill="#4b5563"/>
        <path data-name="Rectangle 5" fill="#fff" d="M1189 864.5h6.4v20.8h-6.4z"/>
      </g>
    </g>
  </g>
</svg>
