<?xml version="1.0" encoding="UTF-8"?><svg xmlns="http://www.w3.org/2000/svg" viewBox="0 0 540 720"><defs><style>.d{fill:#e2e8f0;}.e{fill:#334155;}.f{fill:#cbd5e1;}.g{fill:#240046;}.h{fill:#64748b;}</style></defs><g id="a"/><g id="b"><g id="c"><g><rect class="d" width="540" height="720"/><polygon class="f" points="540 706.5 540 720 0 720 0 620.19 440.52 620.19 540 706.5"/><g><g><rect x="185.66" y="58.76" width="4.84" height="42" rx="1.15" ry="1.15"/><path d="M169.92,83.26h0l5.83,6.17,27.35,.74c1.46,.04,2.68-1.11,2.72-2.57l.18-6.71c.04-1.46-1.11-2.68-2.57-2.72l-27.35-.74-6.15,5.83Z"/><path d="M205.97,65.81h0l-5.31,6.62-27.2,2.95c-1.45,.16-2.76-.89-2.92-2.34l-.72-6.67c-.16-1.45,.89-2.76,2.34-2.92l27.2-2.95,6.61,5.31Z"/></g><g><path d="M219.57,88.92v-2.16l3.33-.84-.78,1.08v-16.77l.87,.66h-4.89l.96-.84-.81,3.81h-2.55v-6.06h17.16v6.06h-2.55l-.75-3.63,.9,.66h-4.89l.87-.66v16.77l-.75-1.08,3.3,.84v2.16h-9.42Z"/><path d="M240.18,86.45l-.3-.36,2.31,.66v2.16h-8.22v-2.16l2.31-.66-.3,.36v-10.95l.27,.27-2.28-.63v-2.16l6.21-.21v13.68Zm-2.22-16.02c-.74,0-1.33-.21-1.79-.63-.45-.42-.68-1.02-.68-1.8,0-.84,.23-1.46,.7-1.88s1.06-.62,1.79-.62,1.28,.21,1.74,.62,.69,1.02,.69,1.84c0,.82-.23,1.44-.7,1.85-.47,.41-1.06,.62-1.75,.62Z"/><path d="M251.73,81.44h-2.37l.87-.66v6.03l-.6-.84,3.45,.78v2.16h-9.36v-2.16l2.88-.84-.66,.9v-16.86l.75,.93-2.97-.78v-2.16l6.6-.15h2.73c1.66,0,3.02,.28,4.08,.85,1.06,.57,1.85,1.35,2.36,2.33s.77,2.09,.77,3.33c0,1.34-.3,2.56-.91,3.65s-1.54,1.95-2.79,2.56c-1.25,.62-2.85,.93-4.81,.93Zm.63-10.59h-2.79l.66-.66v8.82l-.87-.66h2.4c1.34,0,2.36-.36,3.06-1.08,.7-.72,1.05-1.68,1.05-2.88,0-1.1-.3-1.96-.89-2.59-.59-.63-1.47-.95-2.62-.94Z"/><path d="M274.8,86.78l-.57-.87,2.58,.84v2.16l-5.25,.21-.57-2.85,.3,.09c-.8,.96-1.68,1.69-2.62,2.18s-1.92,.74-2.89,.74c-1.28,0-2.34-.41-3.18-1.23-.84-.82-1.26-2-1.26-3.54,0-1.14,.24-2.04,.73-2.72,.49-.67,1.2-1.16,2.15-1.46,.94-.3,2.08-.45,3.42-.45h3.24l-.27,.33v-1.98c0-.94-.23-1.61-.68-2.01-.45-.4-1.1-.6-1.96-.6-.42,0-.88,.04-1.37,.11-.49,.07-1,.2-1.54,.38l.42-.48-.39,2.49h-2.61l-.24-4.44c1.36-.36,2.6-.64,3.73-.84,1.13-.2,2.16-.3,3.1-.3,1.86,0,3.28,.4,4.26,1.2,.98,.8,1.47,2.04,1.47,3.72v9.33Zm-9.24-2.67c0,.72,.17,1.26,.53,1.62,.35,.36,.78,.54,1.3,.54,.54,0,1.1-.16,1.7-.48,.59-.32,1.16-.75,1.72-1.29l-.21,.72v-3.42l.3,.3h-2.58c-1.04,0-1.76,.17-2.16,.5-.4,.33-.6,.84-.6,1.52Z"/><path d="M278.04,88.91v-2.16l2.52-.72-.51,.6v-11.43l.51,.69-2.52-.75v-2.16l5.28-.24,.54,2.88-.54-.21c.96-.98,1.98-1.71,3.06-2.18,1.08-.47,2.11-.71,3.09-.71,1.36,0,2.49,.42,3.39,1.27,.9,.85,1.34,2.13,1.32,3.86v8.97l-.39-.6,2.4,.72v2.16h-8.01v-2.16l2.28-.66-.48,.63v-8.16c0-.98-.22-1.7-.65-2.16-.43-.46-1-.69-1.69-.69-.54,0-1.13,.15-1.77,.45-.64,.3-1.27,.75-1.89,1.35l.27-.63v9.84l-.39-.63,2.19,.66v2.16h-8.01Z"/><path d="M304.68,89.26c-1.38,0-2.62-.32-3.74-.97-1.11-.65-1.99-1.58-2.62-2.8-.64-1.22-.96-2.7-.96-4.44,0-1.58,.23-2.91,.69-3.99,.46-1.08,1.08-1.96,1.86-2.62s1.65-1.15,2.61-1.46,1.95-.45,2.97-.45c.96,0,1.93,.12,2.91,.36,.98,.24,1.78,.51,2.4,.81l-.12,4.41h-2.7l-.45-2.46,.33,.24c-.3-.12-.67-.21-1.09-.27-.43-.06-.83-.09-1.19-.09-.86,0-1.57,.22-2.14,.65s-1,1.04-1.27,1.83c-.28,.79-.42,1.72-.42,2.8,0,1.16,.16,2.14,.48,2.94,.32,.8,.78,1.41,1.37,1.81,.59,.41,1.28,.62,2.06,.62,.62,0,1.3-.13,2.04-.39,.74-.26,1.51-.65,2.31-1.17l1.41,2.13c-1.12,.86-2.24,1.5-3.36,1.91-1.12,.41-2.24,.62-3.36,.62Z"/><path d="M325.92,86.77l-.57-.87,2.58,.84v2.16l-5.25,.21-.57-2.85,.3,.09c-.8,.96-1.68,1.69-2.62,2.17-.95,.49-1.92,.74-2.89,.74-1.28,0-2.34-.41-3.18-1.23-.84-.82-1.26-2-1.26-3.54,0-1.14,.24-2.04,.73-2.71,.49-.67,1.2-1.15,2.15-1.46,.94-.3,2.08-.45,3.42-.45h3.24l-.27,.33v-1.98c0-.94-.23-1.61-.68-2.01-.45-.4-1.1-.6-1.96-.6-.42,0-.88,.04-1.37,.11s-1,.2-1.54,.38l.42-.48-.39,2.49h-2.61l-.24-4.44c1.36-.36,2.6-.64,3.73-.84s2.16-.3,3.1-.3c1.86,0,3.28,.4,4.26,1.2,.98,.8,1.47,2.04,1.47,3.72v9.33Zm-9.24-2.67c0,.72,.17,1.26,.53,1.62,.35,.36,.78,.54,1.3,.54s1.1-.16,1.7-.48c.59-.32,1.16-.75,1.72-1.29l-.21,.72v-3.42l.3,.3h-2.58c-1.04,0-1.76,.17-2.16,.5-.4,.33-.6,.83-.6,1.51Z"/><path d="M329.16,88.9v-2.16l2.43-.69-.42,.63v-11.52l.48,.72-2.49-.75v-2.16l5.28-.24,.54,2.85-.54-.12c.9-.94,1.79-1.67,2.67-2.18,.88-.51,1.82-.76,2.82-.77,.64,0,1.32,.1,2.04,.3l-.27,5.55h-2.43l-.45-3.24,.39,.81c-.12-.04-.25-.07-.38-.09-.13-.02-.25-.03-.37-.03-.62,0-1.24,.19-1.85,.57-.61,.38-1.14,.87-1.57,1.47l.33-1.14v9.96l-.48-.63,2.97,.69v2.16h-8.7Z"/><path d="M349.11,89.26c-1.38,0-2.43-.41-3.14-1.24s-1.06-2.06-1.07-3.71v-9.18l.54,.54h-2.88v-2.25l2.94-.69-.6,.72v-4.08l4.23-.75v4.83l-.45-.57h4.56l-.06,2.79h-4.5l.45-.54v8.61c0,.86,.14,1.48,.42,1.86,.28,.38,.7,.57,1.26,.57,.32,0,.68-.05,1.06-.17,.39-.11,.81-.25,1.27-.43l.78,2.31c-1.68,.92-3.29,1.38-4.83,1.38Z"/><path d="M361.98,89.25c-1.46,0-2.74-.3-3.83-.91-1.09-.61-1.95-1.51-2.57-2.71-.62-1.2-.93-2.68-.93-4.44,0-1.8,.32-3.35,.97-4.65,.65-1.3,1.56-2.29,2.74-2.98,1.18-.69,2.57-1.04,4.17-1.04,1.56,0,2.83,.31,3.81,.93,.98,.62,1.7,1.46,2.16,2.54,.46,1.07,.69,2.28,.69,3.62,0,.34-.01,.67-.04,1-.03,.33-.07,.7-.13,1.1h-10.98v-2.49h7.38l-.54,.39c.02-.8-.05-1.5-.21-2.12-.16-.61-.44-1.08-.84-1.42-.4-.34-.95-.51-1.65-.51-.76,0-1.38,.23-1.86,.68s-.82,1.06-1.02,1.82-.3,1.6-.3,2.52c0,1.08,.12,2.04,.38,2.88,.25,.84,.68,1.5,1.28,1.98,.6,.48,1.38,.72,2.34,.72,.64,0,1.36-.12,2.16-.38,.8-.25,1.62-.62,2.46-1.12l1.44,2.25c-1.18,.8-2.37,1.4-3.57,1.79-1.2,.39-2.37,.59-3.51,.59Z"/></g></g><g><rect class="g" x="265.91" y="167.21" width="17.51" height="497.9"/><path class="e" d="M413.45,206.89c-.31-.92-.92-1.36-.92-1.36-.65-.47-1.43-.48-1.84-.45-82.6-.15-165.2-.3-247.81-.45-5.55,5.41-11.26,11.29-17.04,17.67-5.32,5.87-10.22,11.63-14.74,17.21,3.37,3.78,6.75,7.55,10.13,11.32,7.34,8.18,14.71,16.33,22.11,24.46,49.63-1.57,88.82-1.63,116.07-1.36,13.37,.13,33.65,.48,76.46,.91,22.71,.23,41.4,.37,53.89,.45,.34,.06,1.55,.24,2.76-.45,.76-.44,1.19-1.03,1.38-1.36,.04-15.22,.07-30.44,.11-45.67-.24-.58-.48-1.38-.57-2.35-.15-1.59,.19-2.87,.46-3.62,.2-7.78,.01-13.54-.46-14.95Z"/><path class="e" d="M400.6,394.49c-.05-.21-.27-.97-1.02-1.51-.63-.46-1.28-.5-1.53-.5-39.32,.58-78.63,.91-117.95,1.01-42.02,.1-84.05-.06-126.08-.5-.65,.04-1.54,.15-2.54,.5-.86,.3-1.54,.68-2.03,1.01-5.58,6.28-10.58,10.69-14.23,13.63-3.46,2.78-6.55,6.02-10.17,8.58-3.6,2.55-7.21,4.64-7.12,7.57,.04,1.18,.66,2.04,1.02,2.52,2.86,3.94,4.87,8.5,8.13,12.12,4.19,4.64,10.92,12.8,20.34,24.23h251.15c.31-.08,.67-.23,1.02-.5,1.25-1.02,1.04-2.84,1.02-3.03v-14.64c-2.33-.63-4.13-2.39-4.58-4.54-.59-2.86,1.3-6.02,4.58-7.07v-38.87Z"/><path class="h" d="M136.12,493.14c.26-.93,.84-1.41,.84-1.41,.63-.51,1.4-.56,1.81-.56,82.39-4.83,164.79-9.67,247.18-14.5,5.85,5.09,11.88,10.63,18,16.66,5.64,5.55,10.86,11.02,15.68,16.34-3.15,3.96-6.3,7.92-9.47,11.87-6.86,8.58-13.75,17.13-20.67,25.65-49.6,1.24-88.7,3.41-115.87,5.23-13.33,.89-33.54,2.39-76.22,5.24-22.64,1.51-41.27,2.71-53.74,3.51-.34,.08-1.54,.33-2.78-.3-.79-.4-1.24-.96-1.46-1.28-.9-15.18-1.8-30.37-2.7-45.55,.2-.6,.4-1.41,.44-2.38,.06-1.59-.35-2.85-.66-3.59-.64-7.75-.78-13.51-.39-14.94Z"/><path class="h" d="M138.71,317.09c.26-.93,.85-1.4,.85-1.4,.63-.5,1.4-.55,1.82-.54,82.43-4.08,164.87-8.17,247.3-12.25,5.8,5.14,11.78,10.74,17.85,16.82,5.59,5.6,10.76,11.12,15.53,16.48-3.18,3.93-6.38,7.86-9.57,11.78-6.94,8.51-13.91,17-20.9,25.47-49.61,.79-88.73,2.6-115.91,4.17-13.34,.77-33.56,2.08-76.27,4.55-22.66,1.31-41.3,2.34-53.76,3.02-.34,.08-1.54,.32-2.78-.32-.78-.4-1.23-.98-1.44-1.29-.76-15.19-1.52-30.38-2.29-45.57,.21-.59,.42-1.4,.46-2.37,.07-1.59-.33-2.86-.63-3.59-.57-7.75-.66-13.51-.25-14.94Z"/></g></g></g></g></svg>