<?xml version="1.0" encoding="utf-8"?>
<!-- Generator: Adobe Illustrator 26.0.3, SVG Export Plug-In . SVG Version: 6.00 Build 0)  -->
<svg version="1.1" id="Layer_1" xmlns="http://www.w3.org/2000/svg" xmlns:xlink="http://www.w3.org/1999/xlink" x="0px" y="0px"
	 viewBox="0 0 449.4 124.6" style="enable-background:new 0 0 449.4 124.6;" xml:space="preserve">
<style type="text/css">
	.st0{fill:#EFBD88;}
	.st1{fill:#DA9859;}
	.st2{clip-path:url(#SVGID_00000148646248016699906760000015664217133497677463_);}
	.st3{fill:#BB7A54;}
</style>
<polygon id="dark_x5F_bg" class="st0" points="394,58.7 390.4,72 349.8,119.9 90.9,121.2 83.8,113.9 84.7,91 91.1,88 83.5,82.4 
	83.4,79.6 89.5,69.6 94.8,45.5 85.3,40.3 85.2,38.1 107.5,32.7 322.8,39.5 "/>
<polygon id="base_x5F_bg" class="st1" points="83.9,8.4 347.9,8.2 394,58.7 349.4,111.5 83.8,113.9 84.7,91 95.5,86 83.4,79.6 
	85,45.1 101.8,45.8 85.2,38.1 "/>
<g id="details">
	<defs>
		<polygon id="SVGID_1_" points="83.9,8.4 347.9,8.2 394,58.7 349.4,111.5 83.8,113.9 84.6,91 95.5,86 83.4,79.6 85,45.1 
			101.8,45.8 85.2,38.1 		"/>
	</defs>
	<clipPath id="SVGID_00000071554389696158932510000017696551488548632194_">
		<use xlink:href="#SVGID_1_"  style="overflow:visible;"/>
	</clipPath>
	<g id="full_x5F_details" style="clip-path:url(#SVGID_00000071554389696158932510000017696551488548632194_);">
		<path class="st3" d="M300.8,71.4C269.8,68.7,181,40.2,165.1,40.4c125.7,32.4,145.3,51.5,284.3,11.9c0-0.1,0-0.2,0-0.3
			C402.4,61.7,349.5,76.3,300.8,71.4z"/>
		<path class="st3" d="M157.3,39c-0.5-0.3-1.1-0.4-1.7-0.4C156.1,38.9,156.3,38.9,157.3,39z"/>
		<path class="st3" d="M155.6,38.6c-0.5-0.3-0.7-0.3-1.7-0.4C154.5,38.6,155,38.7,155.6,38.6z"/>
		<path class="st3" d="M193.6,54.4h0.8c-0.4-0.3-0.1-0.1-0.8-0.4V54.4z"/>
		<path class="st3" d="M165.1,40.4c-1.6-1.1-5.4-1.5-7.9-1.4C158.9,40,162.7,40.4,165.1,40.4z"/>
		<path class="st3" d="M150.1,110.6c0.5,0.3,0.7,0.3,1.7,0.4C151.3,110.7,151.1,110.7,150.1,110.6z"/>
		<path class="st3" d="M158,110.5c-0.8-0.3-1.6-0.5-2.5-0.3C156.3,110.5,157.1,110.6,158,110.5z"/>
		<path class="st3" d="M193.1,54c-0.4-0.3-0.1-0.1-0.8-0.4c0,0.1,0,0.3,0,0.4L193.1,54z"/>
		<path class="st3" d="M160,109.6c0.9,0.6,3.4,0.4,5,0.3c2.4-1.5,26.2-2.2,31.3-3.4c20.3-5.6,57.7-5,70.6-18.9
			c-1.3-12.5-68.8-33.3-72.6-33.2C312.5,91.5,230.4,101.4,160,109.6z"/>
		<path class="st3" d="M140.2,53.6h0.8c-0.4-0.3-0.1-0.1-0.8-0.4V53.6z"/>
		<path class="st3" d="M87,33.8c1.9,1.1,12.5,0.2,15.7,0.1C100.7,32.7,90.2,33.7,87,33.8z"/>
		<path class="st3" d="M124.6,34.9h0.8c-0.4-0.3-0.1-0.1-0.8-0.4C124.6,34.7,124.6,34.8,124.6,34.9z"/>
		<path class="st3" d="M137.4,36.2h0.8c-0.4-0.3-0.1-0.1-0.8-0.4V36.2z"/>
		<path class="st3" d="M448.4,60c-0.5-0.3-0.4-0.2-1.2-0.4C447.6,59.9,447.6,59.8,448.4,60z"/>
		<path class="st3" d="M0,69.8c0.1,1.6,0.2,3.2,0.4,4.8c29.7-13.3,81.7-23.7,119.7-15.8c13.3,2.9,38,4.7,38.4,19.3
			c-21,24.1-119.9,21-153,15.3c0.8,1.6,1.6,3.2,2.5,4.7C263.4,116.1,181.3,17.7,0,69.8z"/>
		<path class="st3" d="M69.7,35.4c-0.4-0.3-0.4-0.2-1.2-0.4C68.9,35.3,68.8,35.2,69.7,35.4z"/>
		<path class="st3" d="M139.2,99.8c-1.1-0.4-2.2-0.5-3.3-0.3C136.9,99.9,138.1,100,139.2,99.8z"/>
		<path class="st3" d="M145.3,37.3h0.8c-0.4-0.3-0.1-0.1-0.8-0.4C145.2,37,145.3,37.1,145.3,37.3z"/>
		<path class="st3" d="M149,37.6c-0.6-0.3-1.4-0.5-2.1-0.4C147.5,37.6,148.3,37.7,149,37.6z"/>
		<path class="st3" d="M143.1,53.9c-0.5-0.3-0.7-0.3-1.7-0.4C142,53.8,142.2,53.8,143.1,53.9z"/>
		<path class="st3" d="M154.8,56.8c66.2,18.8,22.9,38.5-15.6,42.2c71.3-5.2,76.4-31.4,4.4-45.1C146.3,55.9,151.3,55.7,154.8,56.8z"
			/>
		<path class="st3" d="M410.9,5.5c0.6-0.3,1.3-0.5,2-0.4c-1.4-0.8-3.9-0.1-5.4,0.1C408.6,5.5,409.8,5.7,410.9,5.5z"/>
		<path class="st3" d="M364.6,0.6l0.1-0.1l-10.4,0.2C358.1,0.7,361.6,0.7,364.6,0.6z"/>
		<path class="st3" d="M385.7,22.6c-55.9,8.2-127.9-3.7-179.5-18.7c0,0-7.3,0.2-7.3,0.2c75.7,20.8,155.9,30.4,233.5,13.2l-0.5-0.4
			C416.8,20,400.8,20.2,385.7,22.6z"/>
		<path class="st3" d="M335.4,7.9c5.7-0.8,1.7,0.6,5,0.7c6.3-1.7,13,0.5,19.4,0c0.4-0.3,12.8-1.6,13.2-1.5c3.9,1,2.2-0.1,4.9-0.5
			C388,7.3,397.3,5,409.4,3.5c-6.1-2.1-12.8-4.1-19.3-3.1c-29.4,4.2-72.7-0.1-104.6,1.8C301.1,4.6,326.4,9.1,335.4,7.9z"/>
		<path class="st3" d="M403.5,6.4c-0.9-0.4-1.9-0.5-2.9-0.3C401.5,6.5,402.5,6.6,403.5,6.4z"/>
		<path class="st3" d="M390.7,7.5c0.8,0.3,1.6,0.5,2.5,0.3C392.4,7.5,391.6,7.4,390.7,7.5z"/>
		<path class="st3" d="M124.3,101.7h1.6c1.2-0.8,4.4-0.9,6.2-0.9c-1.8-1.2-5.8,0.1-7.8,0.2C124.3,101.2,124.3,101.4,124.3,101.7z"/>
		<path class="st3" d="M375,9c1.6,1,13.4-1.1,15.3-1.1c-1.8-1.1-12.4,0.7-15.3,0.7C375,8.8,375,8.9,375,9z"/>
		<path class="st3" d="M425.4,26.5c-49,9-115.4,10.8-163.9,0.8c-38.1-7.6-80.7-22-121.2-21.9C248.7,24.4,328,51.2,439.8,25.5
			c-0.4-0.6-0.9-1.2-1.4-1.8C433.3,24.7,428.8,25.6,425.4,26.5z"/>
		<path class="st3" d="M397.7,7.4c0.6-0.3,1.3-0.5,2.1-0.4c-1.6-1-4.5,0-6.6,0.1C394.1,7.6,396.2,7.4,397.7,7.4z"/>
		<path class="st3" d="M366.8,10c1.3-0.9,5.3-0.6,7.4-0.6c-2.1-1.2-53.5,0.6-64.4-1.8c-12.3-2.1-24.7-5.1-37-5.2
			C300.5,8.8,331.9,11.3,366.8,10z"/>
		<path class="st3" d="M332.9,105.5c-99.6-1.6-184.8,17.7-291.5,17.9c119.3,1.1,201.6-19.7,307.7-13.1c20,2.1,41.5,3.6,63.2,4.5
			c2-0.8,3.9-1.8,5.8-2.8C390.1,110.3,344.6,107.7,332.9,105.5z"/>
		<path class="st3" d="M75.9,95.2c20.8-2.2,58.6-2.2,74.8-16.2c7.7-10.8-21.9-16.2-28.9-18C90.2,53.3,15,63,1.1,79.5
			c0.5,2.8,1.2,5.5,2.1,8.1C19.1,96.1,53.7,96,75.9,95.2z M10.4,82.4c2.5-21.5,120.5-31.2,130.7-8.3C139.7,97.4,17,97.6,10.4,82.4z"
			/>
		<path class="st3" d="M119.8,102.2c0-0.3,0-0.5,0-0.8c-1.2,0.3-2.5,0.5-3.7,0.5C116.9,102.4,118.5,102.3,119.8,102.2z"/>
		<path class="st3" d="M83.6,86.4c0.6-0.4,62.4-7.4,21.5-18.2C59.6,56.1-11.7,90.4,83.6,86.4z M92.3,72.7c1,0.9,2.1,1.7,3.4,2.3
			c-0.1,0.7-0.2,1.3-0.4,2c-2.7,1.3-8.6,1.4-11.1,3c-8.9,0.2-17.9,0.7-24-1.9C60.9,70.7,86.3,72.8,92.3,72.7L92.3,72.7z"/>
		<path class="st3" d="M415,41.7c-48.3,10.3-129,7.9-175.1-3.3C161.1,18.7,91.1,7.7,13.3,28.7c-1.3,1.5-2.6,3-3.7,4.6
			C175.1-11,263.7,88.9,446.8,39.6c-0.4-1.2-0.8-2.4-1.2-3.5C435.4,38.2,425.2,40.1,415,41.7z"/>
		<path class="st3" d="M382.9,85.5c10.2-9.9,27.1-13,42.5-18.3c6.6-2.3,14.3-5.9,21.7-6.8c-6.1-0.5-70.8,17.8-77.1,26.1
			c1.7,11.8,30.6,13.2,60.5,17.1c0.7-0.6,1.4-1.2,2-1.8C414.2,99.9,383.1,96.2,382.9,85.5z"/>
		<path class="st3" d="M365.4,40.8c-116.4,11.7-227.9-58.2-343.6-20C133.5-6.9,198.8,32,303.1,41.8c41.7,2.8,96.4-0.4,140.4-10.2
			c-0.3-0.6-0.6-1.1-0.9-1.6C414.6,36.9,392.9,37.8,365.4,40.8z"/>
		<path class="st3" d="M373.1,54.9C236.1,70.5,152.9-4.4,7.4,36.7c-0.2,0.4-0.7,1.3-1,1.7c194.4-44.9,232.7,59.8,441.8,6.3
			c-0.1-0.7-0.3-1.4-0.5-2.1C421.5,48.2,397.4,50.4,373.1,54.9z"/>
	</g>
</g>
</svg>
