<svg xmlns="http://www.w3.org/2000/svg" viewBox="0 0 170.41 36.83"><defs><style>.cls-1{fill:#9c6644;}</style></defs><g id="Calque_2" data-name="Calque 2"><g id="Calque_1-2" data-name="Calque 1"><path class="cls-1" d="M65.94,22.82C66.07,21,67.28,2.53,61,.25A3,3,0,0,0,59.27.06c-3.46.77-4.39,9-5.92,22.58-9,1.23-3.21,6.72-.68,7.15-.5,2.59-1,3.79-.31,4.69,1.06,1.33,4.23,1.22,5.12-.12s-.27-3.19-.06-4.57a2.78,2.78,0,0,1,3.64-.06,25,25,0,0,0-.12,4.36c.06,1.12.17,1.62.54,2a2.81,2.81,0,0,0,3,.51c1.58-.69,2.31-3.58,1.51-7.15,2.52-.18,4.06-2.43,3.64-4.19A3.64,3.64,0,0,0,65.94,22.82Zm-7.65-.31s0-3.51,1-5.06,1,5.06,1,5.06Z"/><path class="cls-1" d="M119.28,22.82c.14-1.86,1.34-20.29-5-22.57a2.91,2.91,0,0,0-1.71-.19c-3.47.77-4.39,9-5.93,22.58a7.15,7.15,0,0,0-3.1.88h0l-.07.05-.07,0-.11.08,0,0a5.19,5.19,0,0,0-.84.76l0,0-.07.1,0,.06,0,0c-1.66,2.23-4.1,6.71-6.49,6.22-2.76-.57-3.71-7.42-3.56-11.72C92.42,13,95.13,7.41,96.53,7.59c.74.1.61,1.73,2,2.4a4.19,4.19,0,0,0,4.92-1.77c1.31-2.29-.62-5.64-2.84-7.11a6.87,6.87,0,0,0-4.85-1c-4.71.93-6.92,7.41-7.79,10a35.5,35.5,0,0,0-1.6,7.23c.28-4.45.42-6.72.53-7.38.54-3.11,1.26-5,.26-7.26-.21-.45-1-2.32-2.71-2.63a3.87,3.87,0,0,0-3,1c-3.48,3.15,0,12.34-.55,12.47-.09,0-.27-.2-2-4.22-.53-1.25-.79-1.88-.84-2-1.22-3.47-.37-4.95-1.48-6.06a3.76,3.76,0,0,0-4.4-.3c-1.74,1.24-1.13,4.27-.92,7.84.33,5.74-.08,16.34-.42,25.5a2.7,2.7,0,0,0,.65,2.13c.88.76,2.7.52,3.73-.34,1.25-1,1.07-2.82.9-7.09-.22-5.65-.37-9.73.34-9.88.29-.07.85.93,1.95,2.92a16.23,16.23,0,0,1,1.64,3.45,14.27,14.27,0,0,1,.28,3.87c0,4.08-.36,5.82.8,6.88a2.69,2.69,0,0,0,.93.55A3.6,3.6,0,0,0,85,36c1.84-1.31,1.3-5.27,1.19-11.46.44,5.36,2.24,10,5.76,11.67A8.52,8.52,0,0,0,98.87,36c3-1.49,4.54-4.79,5.14-7.62a22.15,22.15,0,0,0,2,1.46c-.5,2.59-1,3.79-.3,4.69,1.06,1.33,4.22,1.22,5.12-.12s-.28-3.19-.06-4.57a2.78,2.78,0,0,1,3.64-.06,25.22,25.22,0,0,0-.13,4.36c.06,1.12.17,1.62.54,2a2.81,2.81,0,0,0,3,.51c1.58-.69,2.31-3.58,1.51-7.15,2.52-.18,4.06-2.43,3.64-4.19A3.63,3.63,0,0,0,119.28,22.82Zm-7.65-.31s0-3.51,1-5.06,1,5.06,1,5.06Z"/><path class="cls-1" d="M170.24,24.16c-1-.69-6.91,8.87-10.48,7.51-2-.78-2.4-4.75-2.4-7.84a11.11,11.11,0,0,0,4.51-.9c4.31-1.88,5.94-6,6.47-7.38,1.55-4,2.39-11-1.6-14A8.22,8.22,0,0,0,159,.57a9.77,9.77,0,0,0-4.34,3.91,5,5,0,0,0,0-1.3,4.61,4.61,0,0,0-.81-2c-1-1.27-2.62-1-7.7-1.1C142,0,140.68-.2,139.2.85a3.89,3.89,0,0,0-1.59,2.08,3.4,3.4,0,0,0,.81,3.33c1.36,1.16,3.55.08,4.24,1.21a1.38,1.38,0,0,1,.17.85c.76,17,.7,23.82.21,24.83a2.56,2.56,0,0,0,.42,3.07c1.88.59,4.18,1,5.1,0,.74-.86.26-2.33,0-3.45-.72-2.89.23-2.12.27-11.06,0-4.27.48-8.53.45-12.8a1.8,1.8,0,0,1,.14-.8c.62-1.33,2.82-.76,4.21-1.75-4.48,9.12-3.92,25.38,2.74,29.46a7.35,7.35,0,0,0,4.37,1C167.52,36.14,171.27,24.86,170.24,24.16ZM159,12.7c.6-1.57,2.06-4.1,3.09-3.85,1.39.33,2.39,5.88-.16,8.08-.82.71-2.23,1.26-3,.74C157.73,16.89,158.51,14,159,12.7Z"/><path class="cls-1" d="M23.72,7.6a3.92,3.92,0,0,0-3.23-.44c-1.64.64-2.56,3.26-1.23,6.2.1,6.83,0,10.83-.19,13.26-.13,1.89.09,3.8-.08,5.69-.2,2.19-.52,3.46.34,4.11a3.78,3.78,0,0,0,3.56-.07c3-1.53.62-5.75,2.09-14.58,0-.21,1.37-8.23.23-12.06A3.57,3.57,0,0,0,23.72,7.6Z"/><path class="cls-1" d="M21.62.05a3.85,3.85,0,0,0-2.71,1.83,2.92,2.92,0,0,0,.48,3.5,4,4,0,0,0,2.33.6,4.48,4.48,0,0,0,2.7-.47,2.91,2.91,0,0,0,1-4A3.81,3.81,0,0,0,21.62.05Z"/><path class="cls-1" d="M48.85,21.12C53.07,19.66,57,8.41,51.25,2.94c-4.6-4.37-13.73-3.45-16,0-1,1.55-1,4.25.15,5.07s2.6-.33,3.31.47c.46.52-.06,1.12,0,3.25,0,1.44.29,1.75,0,2-.83.78-3.38-1.78-5.38-1a3.68,3.68,0,0,0-1.83,3.94C32,18.82,34.85,20,37.25,21l1.79.7A76.08,76.08,0,0,0,38.16,32c0,3.54.28,4.25.85,4.6,1.15.7,3.43,0,4.59-1.47.36-.45,1-1.43.83-8.62,0-2-.12-3,.66-3.95C46.13,21.32,47.69,21.52,48.85,21.12Zm-3.37-9.4c.22-2.62,0-3.56.67-3.94a2.06,2.06,0,0,1,1.94.32c2.11,1.43,2,6.33-.22,7.56a2.3,2.3,0,0,1-2.39,0C44.89,15.15,45.27,14.35,45.48,11.72Z"/><path class="cls-1" d="M136.79,31.63c-1-.67.3-4.31.53-10.72.09-2.43,0-3.39-.53-4.34-.59-1.18-1.53-2-1.25-2.74.19-.5.72-.43,1.22-1a3.89,3.89,0,0,0,.49-3c-.21-1.8-.61-5.27-3.42-7.63-3.35-2.82-8.81-3-11.13-.3a5.25,5.25,0,0,0-1.18,4.72c.09.27.52,1.47,1.39,1.68.34.08.44-.06.67.06.56.28.44,1.34.59,3.23.16,2.1.4,2.12.2,2.64-.52,1.31-2,1-2.71,2.29a3.44,3.44,0,0,0,.55,3.92c.82.67,1.6.06,2.34.65s.58,2.16.44,4.69c-.2,3.5-.42,7.39,1.16,8.33a2.2,2.2,0,0,0,1.44.18,4,4,0,0,0,2.51-2.23c.73-1.46.38-2.5,0-6.73-.4-4.77-.13-5.64.3-5.81s.78.2.93.33c1.09.89,1,2.75,1,3.62-.25,8.21-.11,9.61.64,10.94.2.34,1.26,2.23,2.92,2.4,2.16.23,4-2.57,5-4.2s2.12-3.87,1.63-4.28C141.83,27.7,138.1,32.47,136.79,31.63Zm-3.85-19.08c-.22,0-2.21.4-2.9-.63-.35-.53,0-.84-.12-3.13,0-.42-.06-.67.09-.79.37-.3,1.53.43,2.17,1.28A4.73,4.73,0,0,1,132.94,12.55Z"/><path class="cls-1" d="M16.39,1.16c-1-1.27-2.62-1-7.7-1.1C4.53,0,3.2-.2,1.72.85A3.85,3.85,0,0,0,.13,2.93a3.38,3.38,0,0,0,.8,3.33c1.37,1.16,3.55.08,4.25,1.21a1.37,1.37,0,0,1,.16.85c.77,17,.71,23.82.22,24.83a2.75,2.75,0,0,0-.31,1.65A2.8,2.8,0,0,0,6,36.22c1.88.59,4.17,1,5.09,0,.75-.86.27-2.33,0-3.45-.72-2.89.24-2.12.27-11.06,0-4.27.49-8.53.46-12.8a1.67,1.67,0,0,1,.14-.8c.69-1.49,3.37-.6,4.67-2.17a3.7,3.7,0,0,0,.59-2.73A4.67,4.67,0,0,0,16.39,1.16Z"/></g></g></svg>