<svg xmlns="http://www.w3.org/2000/svg" viewBox="0 0 210.04 360"><defs><style>.cls-1{fill:#7f3c24;}.cls-2{fill:#fde580;}.cls-3{fill:#c8964c;}.cls-4{fill:#98bccc;}.cls-5{fill:#fbeed2;}.cls-6{fill:#f3a07c;}.cls-7{fill:#534447;}.cls-8{fill:#efeee5;}.cls-9{fill:#c4d26c;}.cls-10{fill:#384c6c;}.cls-11{fill:#fff;}</style></defs><g id="Calque_2" data-name="Calque 2"><g id="Calque_1-2" data-name="Calque 1"><rect class="cls-1" x="98.61" width="12.84" height="360"/><path class="cls-2" d="M1,24.76a2.19,2.19,0,0,1,.6-1.05A2.09,2.09,0,0,1,3,23.28L184.46,9.45c4.36,3.67,8.87,7.68,13.45,12,4.21,4,8.12,8,11.73,11.83q-3.39,4.43-6.81,8.86-7.4,9.6-14.86,19.15c-36.45,1.55-65.16,3.65-85.11,5.33-9.79.82-24.62,2.18-56,4.83C30.28,72.89,16.6,74,7.45,74.75a2.89,2.89,0,0,1-3.14-1.1Q3,56.9,1.75,40.14A6.05,6.05,0,0,0,2,38.39a6.46,6.46,0,0,0-.53-2.64C.94,30.06.76,25.82,1,24.76Z"/><path class="cls-3" d="M37.88,64.66a4.35,4.35,0,0,0-.72-2.53,4.56,4.56,0,0,0-2.11-1.45,10.2,10.2,0,0,0-3.22-.51c-1.23,0-2.11,0-2.61-.08C28.41,60,28,59,27.86,57a52.6,52.6,0,0,1,.3-6.88,105.29,105.29,0,0,0,.51-13.38c-.21-4.1-1-7-2.29-8.61a3.26,3.26,0,0,0-2.64-1.61,4.41,4.41,0,0,0-1.13.28,3.47,3.47,0,0,0-1.38.8,5.6,5.6,0,0,0-.95,1.61l-.68,1.61.33,6.31c.15,3,.51,6.53,1.09,10.66s.93,6.9,1.08,8.31l.39,4.34-1.24.4a6.14,6.14,0,0,0-3.13,2,4.29,4.29,0,0,0-1.07,3,3.69,3.69,0,0,0,.76,2,3.35,3.35,0,0,0,1.78,1.49,16,16,0,0,0,4.18.11c1.73-.09,3.2-.18,4.39-.28,5.13-.34,7.9-.62,8.28-.86a3.59,3.59,0,0,0,1.45-3.18C37.89,65,37.89,64.82,37.88,64.66Z"/><path class="cls-3" d="M55.75,53.06c0-.36-.1-.6-.25-.7a.22.22,0,0,0-.17,0c-.32,0-1.46,1.13-3.42,3.33a48.22,48.22,0,0,1-4.42,4.57,5.18,5.18,0,0,1-2.79,1.31l-.54,0a1.79,1.79,0,0,1-1.51-.74,11.4,11.4,0,0,1-1.81-5.58l-.29-2.54,1.67-.25a11.52,11.52,0,0,0,7.2-3.89,18.43,18.43,0,0,0,4.07-8.74,21.34,21.34,0,0,0,.38-5.48A13.51,13.51,0,0,0,53,30a7.95,7.95,0,0,0-6.52-5.11,9.71,9.71,0,0,0-2.08-.22,8.36,8.36,0,0,0-1.78.3c-3,.78-5.49,3.22-7.32,7.33a36.78,36.78,0,0,0-2.73,15.17c0,.47,0,1.16,0,2.07a34.42,34.42,0,0,0,1.67,9.29c.23.66.47,1.29.72,1.88a15.05,15.05,0,0,0,2.84,4.47l.15.16a8.45,8.45,0,0,0,2.88,1.92,7.29,7.29,0,0,0,3.24.66,4.43,4.43,0,0,0,1.94-.38l.42-.24.77-.42.82-.42q3.55-1.87,6-7.62Q55.85,54.91,55.75,53.06ZM42.44,38.21c.86-2,1.71-3,2.54-3.08a.78.78,0,0,1,.39.09,3.92,3.92,0,0,1,1.06,1.69,8.31,8.31,0,0,1,.51,2.53,6.87,6.87,0,0,1-1,4.14,3.65,3.65,0,0,1-3,1.85c-.69,0-1.13-.1-1.33-.42a3.18,3.18,0,0,1-.34-1.45A12.31,12.31,0,0,1,42.44,38.21Z"/><path class="cls-3" d="M89.78,49.76a13.2,13.2,0,0,0-4.06-9.28q-2.48-2.43-7.78-3a14.7,14.7,0,0,1-3.18-.57,2.61,2.61,0,0,1-1.42-1.05A2.68,2.68,0,0,1,73,34.49a6.45,6.45,0,0,1,.41-2.7A5.82,5.82,0,0,1,74.59,30c.57-.63,1-.95,1.29-1a6.58,6.58,0,0,1,2,.88,4.31,4.31,0,0,0,2.16.76,1.93,1.93,0,0,0,.54-.08,4,4,0,0,0,1.9-1.21,2.57,2.57,0,0,0,.83-1.82c-.07-1.45-1-2.74-2.86-3.86a9.81,9.81,0,0,0-5.69-1.53,6.42,6.42,0,0,0-1.3.17,9.8,9.8,0,0,0-2.76,1.35,14.44,14.44,0,0,0-2.56,2,11.42,11.42,0,0,0-2.72,8.59q.26,4.89,3.21,7.36a6.75,6.75,0,0,0,4.75,1.22,14.4,14.4,0,0,1,5.17.53,10.26,10.26,0,0,1,3.9,2.44A7.19,7.19,0,0,1,85,50.55,5.34,5.34,0,0,1,82.71,55a8.62,8.62,0,0,1-5,1.89,4.08,4.08,0,0,1-1.93-.28c-1-.46-1.49-1.5-1.57-3.13a3.06,3.06,0,0,0-.77-1.68A4.07,4.07,0,0,0,72,50.57a3.74,3.74,0,0,0-1.76-.29,4.88,4.88,0,0,0-2,.53c-1.26.76-1.84,2.28-1.72,4.57a8.53,8.53,0,0,0,1,3.6,11.52,11.52,0,0,0,2.3,2.85A12,12,0,0,0,72.88,64a9.88,9.88,0,0,0,2,.72,13.6,13.6,0,0,0,2.53,0,13.55,13.55,0,0,0,2.57-.3,13.62,13.62,0,0,0,2.16-1,16.84,16.84,0,0,0,3.7-3.11,14.92,14.92,0,0,0,2.75-3.82,15.37,15.37,0,0,0,.87-2.61A14.71,14.71,0,0,0,89.78,49.76Z"/><path class="cls-3" d="M109.07,45.39c0-.83,0-2-.13-3.59q-.48-9.4-3.08-14.4a13,13,0,0,0-4.44-4.87,12.58,12.58,0,0,0-2.81-1.42,7.27,7.27,0,0,0-2.67-.39,6.72,6.72,0,0,0-1.08.16Q91.11,22.07,89,27.94a37.74,37.74,0,0,0-1.63,14.32,1.48,1.48,0,0,1,0,.21,44.46,44.46,0,0,0,2,11.45c.26.78.54,1.53.84,2.26q2.46,5.81,5.94,6.94a6.78,6.78,0,0,0,2.36.32h0a10.32,10.32,0,0,0,6.42-3A12.44,12.44,0,0,0,109,53.74,55.14,55.14,0,0,0,109.07,45.39Zm-4.71,1.44A20,20,0,0,1,103,53.5a8.38,8.38,0,0,1-1.29,2.36,2.15,2.15,0,0,1-1.54.73,2.33,2.33,0,0,1-1.57-.7,10.08,10.08,0,0,1-1.49-1.65,19.23,19.23,0,0,1-2.85-5.52,31.08,31.08,0,0,1-.82-6.56,32.13,32.13,0,0,1,.17-7.31c.84-4.08,2-6.15,3.43-6.23a2.27,2.27,0,0,1,1.56.72l.23.22a18.71,18.71,0,0,1,3.64,6.77,31.79,31.79,0,0,1,1.84,8.87C104.36,46,104.37,46.51,104.36,46.83Z"/><path class="cls-3" d="M129.92,57.13c0-.25,0-.49-.07-.71a3.7,3.7,0,0,0-.66-1.82,4.16,4.16,0,0,0-.89-.83,8,8,0,0,0-4.44-1.13c-1.23,0-2.1,0-2.62-.08q-1.2-.16-1.35-3.09a52.68,52.68,0,0,1,.3-6.89,105.29,105.29,0,0,0,.51-13.38c-.21-4.1-1-7-2.29-8.61A3.29,3.29,0,0,0,115.77,19a4.51,4.51,0,0,0-1.13.28,3.36,3.36,0,0,0-1.38.81,5.76,5.76,0,0,0-1,1.6l-.68,1.62.33,6.3c.15,3,.51,6.53,1.09,10.66s.93,6.9,1.08,8.31l.38,4.35-1.23.39a6.6,6.6,0,0,0-1.84.84,5.77,5.77,0,0,0-1.29,1.17,4.29,4.29,0,0,0-1.07,3,4.44,4.44,0,0,0,2.36,3.46,1.06,1.06,0,0,0,.19.06,16.24,16.24,0,0,0,4.17.12c1.73-.09,3.2-.19,4.39-.29q7.69-.49,8.28-.86C129.49,60.17,130,58.94,129.92,57.13Z"/><path class="cls-3" d="M148.73,45.56a.9.9,0,0,0-.25-.7.23.23,0,0,0-.17,0q-.48,0-3.42,3.34a47.77,47.77,0,0,1-4.42,4.56A5.15,5.15,0,0,1,137.68,54l-.54,0a1.76,1.76,0,0,1-1.51-.74q-1.33-1.66-1.81-5.57l-.29-2.55L135.2,45a11.57,11.57,0,0,0,7.21-3.89,18.47,18.47,0,0,0,4.06-8.74,21.3,21.3,0,0,0,.38-5.47,13.57,13.57,0,0,0-.83-4.38,8,8,0,0,0-6.52-5.11,9.71,9.71,0,0,0-2.08-.22,8.44,8.44,0,0,0-1.78.31c-3,.77-5.49,3.22-7.32,7.33a36.89,36.89,0,0,0-2.74,15.16q0,.7.06,2.07a34.42,34.42,0,0,0,1.67,9.29,23.53,23.53,0,0,0,1,2.47,16.35,16.35,0,0,0,1.55,2.65A11.6,11.6,0,0,0,131,57.81a8.62,8.62,0,0,0,2.88,1.93,7.44,7.44,0,0,0,3.24.65,4.63,4.63,0,0,0,1.94-.37l.42-.25.77-.42.82-.42q3.56-1.87,6-7.62Q148.83,47.41,148.73,45.56ZM135.42,30.71c.86-2,1.71-3,2.54-3.08a1.08,1.08,0,0,1,.39.09,3.83,3.83,0,0,1,1.06,1.69,8.08,8.08,0,0,1,.51,2.54,6.9,6.9,0,0,1-1,4.14,3.64,3.64,0,0,1-3,1.84c-.69,0-1.13-.1-1.33-.42a3.05,3.05,0,0,1-.34-1.45A12.31,12.31,0,0,1,135.42,30.71Z"/><path class="cls-3" d="M159.62,19.05a2.78,2.78,0,0,0-.52-1.66,4.17,4.17,0,0,0-3.88-1.49,3.71,3.71,0,0,0-3,1.46,3.84,3.84,0,0,0-1.05,2.83,2.63,2.63,0,0,0,.63,1.66A4,4,0,0,0,155.26,23a4.6,4.6,0,0,0,3.92-1.95A3.51,3.51,0,0,0,159.62,19.05Zm.47,13.28c-.11-2.17-.22-3.56-.32-4.15a6,6,0,0,0-.7-1.85,4,4,0,0,0-1.61-1.77,5.12,5.12,0,0,0-2.75-.57,2.25,2.25,0,0,0-.92.22,4,4,0,0,0-2,2.93,4,4,0,0,0-.15,1.26,7.61,7.61,0,0,0,.48,2,18.2,18.2,0,0,1,.68,4.7q0,.49.26,7.24.32,10.35.27,12.69c0,.47,0,1,0,1.69a2.12,2.12,0,0,0,.57,1.5,2.65,2.65,0,0,0,2,.55,4,4,0,0,0,3.5-1.82,5.65,5.65,0,0,0,.33-2.07c0-.58,0-1.28,0-2.09s0-2,0-3.16a77.18,77.18,0,0,1,.16-9.55A65.07,65.07,0,0,0,160.09,32.33Z"/><path class="cls-3" d="M180.5,53a4.39,4.39,0,0,0-.73-2.52c-1-1.26-2.75-1.91-5.33-2-1.23,0-2.11,0-2.61-.08-.81-.1-1.26-1.13-1.36-3.09a52.54,52.54,0,0,1,.3-6.88A105.48,105.48,0,0,0,171.28,25c-.21-4.1-1-7-2.29-8.6a3.26,3.26,0,0,0-2.65-1.61,4.43,4.43,0,0,0-1.12.27,3.48,3.48,0,0,0-1.38.81,5.76,5.76,0,0,0-1,1.6l-.68,1.62.33,6.31q.22,4.45,1.09,10.66t1.08,8.31l.39,4.34-1.24.39a6.22,6.22,0,0,0-3.13,2,4.93,4.93,0,0,0-.91,1.65,3.85,3.85,0,0,0-.16,1.35,3.09,3.09,0,0,0,.12.74,3.86,3.86,0,0,0,.63,1.29,3.43,3.43,0,0,0,1.8,1.49,16.41,16.41,0,0,0,4.17.11c1.73-.09,3.2-.18,4.39-.28,5.13-.34,7.9-.63,8.28-.86C180.07,56,180.55,54.77,180.5,53Z"/><path class="cls-4" d="M209.36,81.63a2.17,2.17,0,0,0-.69-1,2,2,0,0,0-1.35-.32l-182,.94c-4.05,4-8.21,8.37-12.42,13.08q-5.82,6.53-10.74,12.75,3.74,4.14,7.5,8.28,8.14,9,16.36,17.88c36.45-1.41,65.24-1.65,85.26-1.59,9.82,0,24.72.18,56.16.27,16.69.05,30.41.06,39.59.06a3.06,3.06,0,0,0,2-.35,2.86,2.86,0,0,0,1-1L209.89,97a6.36,6.36,0,0,1-.44-1.73,6.44,6.44,0,0,1,.32-2.67C209.88,86.9,209.71,82.66,209.36,81.63Z"/><path class="cls-5" d="M50.51,120.51q-1.32-1.91-5.07-2.17c-1.2-.07-2-.14-2.53-.21-.78-.14-1.16-1.16-1.16-3.07a52,52,0,0,1,.63-6.66,103.7,103.7,0,0,0,1.16-13c0-4-.6-6.81-1.79-8.46a3.2,3.2,0,0,0-2.49-1.7,4.28,4.28,0,0,0-1.11.22,3.33,3.33,0,0,0-1.37.71,5.35,5.35,0,0,0-1,1.51L35,89.25v6.14q0,4.33.53,10.39t.63,8.12l.16,4.23-1.21.32a6,6,0,0,0-3.14,1.8,4.16,4.16,0,0,0-1.19,2.86,3.61,3.61,0,0,0,.63,2,3.32,3.32,0,0,0,1.66,1.53,15.74,15.74,0,0,0,4,.32c1.69,0,3.12,0,4.28,0q7.5-.12,8.08-.43c1-.56,1.55-1.73,1.58-3.49A4.23,4.23,0,0,0,50.51,120.51Z"/><path class="cls-5" d="M70.68,112.61a3.52,3.52,0,0,0-2.33-1.14c-.38,0-.58-1.94-.58-5.82q0-14.13-3.69-18.2a4.71,4.71,0,0,0-3.33-1.85,3,3,0,0,0-1.58.48c-1.13.7-2.07,2.46-2.83,5.26a96.57,96.57,0,0,0-2.14,13.15c0,.28-.07.6-.1,1q-.59,5.07-1,5.55a2.45,2.45,0,0,1-1.16.43,6.84,6.84,0,0,0-2.94,1.27,2.45,2.45,0,0,0-1.13,1.85,4.27,4.27,0,0,0,1.27,2.54,6.76,6.76,0,0,0,2.69,2,1.28,1.28,0,0,1,.58.39,1,1,0,0,1,0,.66,15.09,15.09,0,0,0-.42,3.28,2.57,2.57,0,0,0,.05.69c.25,1,1.22,1.48,2.91,1.48a5.21,5.21,0,0,0,2.21-.47,2,2,0,0,0,1.22-1.33,3,3,0,0,0,0-.68,11,11,0,0,0-.16-1.86c0-.17-.07-.37-.1-.58s-.07-.38-.08-.5a1.89,1.89,0,0,1,0-.29,1.07,1.07,0,0,1,.48-.85,3.11,3.11,0,0,1,1.79-.47,2.15,2.15,0,0,1,1.16.26c.25.14.39,1.29.43,3.44a17.12,17.12,0,0,0,.21,3.75,1.83,1.83,0,0,0,1,.91,4.15,4.15,0,0,0,1.67.36,2.57,2.57,0,0,0,2.32-1.48,8.38,8.38,0,0,0,.85-4.12V121a12.3,12.3,0,0,1-.06-1.27,1.29,1.29,0,0,1,.14-.74,1.07,1.07,0,0,1,.55-.26,4.38,4.38,0,0,0,2.3-1.51,3.86,3.86,0,0,0,.92-2.46A3.13,3.13,0,0,0,70.68,112.61Zm-10.51-1.72a1.88,1.88,0,0,1-1-.14c-.11-.08-.16-.34-.16-.76a13.79,13.79,0,0,1,.53-3c.32-1.19.6-1.78.84-1.78s.53,1.2.74,3.6l.16,2.12Z"/><path class="cls-5" d="M98.61,86.8l-.48-.19a16.09,16.09,0,0,0-5.6-.74,16.24,16.24,0,0,0-3.7.37c-3.62,1-5.44,2.94-5.44,5.76a3.23,3.23,0,0,0,0,.35,3.1,3.1,0,0,1,0,.34,3.14,3.14,0,0,0,.68,1.93,2.87,2.87,0,0,0,2,.5,4.33,4.33,0,0,1,1.79.21c.18.11.27.82.27,2.12v.9a15.59,15.59,0,0,1-.19,2.38c-.09.39-.29.58-.61.58a5.66,5.66,0,0,1-1.79-.58,8,8,0,0,0-2.64-.69c-1.23,0-2.13.76-2.69,2.28a4.32,4.32,0,0,0-.32,1.58,3.65,3.65,0,0,0,1.29,2.7A14.44,14.44,0,0,0,85.3,109l2.85,1.27-.06,1.06c0,.11,0,.4,0,.87s-.07,1-.1,1.57-.09,1.09-.16,1.58a59.65,59.65,0,0,0-.27,6.4,18.39,18.39,0,0,0,.27,4.39,1.66,1.66,0,0,0,1.79,1.27,6,6,0,0,0,2.75-.9,3.27,3.27,0,0,0,1.74-2.09,42.17,42.17,0,0,0,.42-6.53l.16-5.87.79-.85a6.55,6.55,0,0,1,2.86-1.27l.32-.07a7.5,7.5,0,0,0,1.57-.51,5.55,5.55,0,0,0,1.33-1,13.9,13.9,0,0,0,2-3,18,18,0,0,0,1.48-3.79,16.76,16.76,0,0,0,.42-4Q105.41,89.73,98.61,86.8Zm0,16.44a3.62,3.62,0,0,1-.43.24,3.46,3.46,0,0,1-1.32.32,1.29,1.29,0,0,1-1.48-1.43.82.82,0,0,1,0-.18,2.32,2.32,0,0,0,0-.24c0-.21.09-.87.16-2s.16-2.14.27-3.15A5.09,5.09,0,0,1,96.23,95c.14-.29.45-.43,1-.43a2.22,2.22,0,0,1,1.43.45l.1.08A4.73,4.73,0,0,1,100.18,99C100.18,101.1,99.66,102.5,98.61,103.24Z"/><path class="cls-5" d="M121.68,120.51q-1.32-1.91-5.07-2.17c-1.19-.07-2-.14-2.53-.21-.78-.14-1.16-1.16-1.16-3.07a52,52,0,0,1,.63-6.66,101.8,101.8,0,0,0,1.16-13c0-4-.6-6.81-1.79-8.46a4.21,4.21,0,0,0-1.48-1.43,2.06,2.06,0,0,0-1-.27,4.14,4.14,0,0,0-1.11.22,3.31,3.31,0,0,0-1.38.71,5.57,5.57,0,0,0-1,1.51l-.74,1.53v6.14q0,4.33.53,10.39t.63,8.12l.16,4.23-1.21.32a6,6,0,0,0-3.14,1.8,4.16,4.16,0,0,0-1.19,2.86,3.61,3.61,0,0,0,.63,2,3.29,3.29,0,0,0,1.67,1.53,15.64,15.64,0,0,0,4,.32q1.75,0,3.12,0l1.16,0q7.5-.12,8.08-.43c1-.56,1.55-1.73,1.58-3.49A4.23,4.23,0,0,0,121.68,120.51Z"/><path class="cls-5" d="M142.74,112.61A5.23,5.23,0,0,0,142,112a2.83,2.83,0,0,0-1.61-.56c-.38,0-.58-1.94-.58-5.82q0-14.13-3.69-18.2a4.71,4.71,0,0,0-3.33-1.85,3,3,0,0,0-1.58.48c-1.13.7-2.07,2.46-2.83,5.26a98.2,98.2,0,0,0-2.14,13.15c0,.28-.07.6-.1,1q-.59,5.07-1,5.55a2.45,2.45,0,0,1-1.16.43,6.74,6.74,0,0,0-2.93,1.27,2.43,2.43,0,0,0-1.14,1.85,4.27,4.27,0,0,0,1.27,2.54,6.76,6.76,0,0,0,2.69,2,1.28,1.28,0,0,1,.58.39,1,1,0,0,1,0,.66,15.09,15.09,0,0,0-.42,3.28,3.1,3.1,0,0,0,.05.69c.25,1,1.22,1.48,2.91,1.48a5.21,5.21,0,0,0,2.21-.47,2,2,0,0,0,1.22-1.33,3,3,0,0,0,0-.68,11,11,0,0,0-.16-1.86c0-.17-.07-.37-.1-.58s-.06-.38-.08-.5a1.89,1.89,0,0,1,0-.29,1.07,1.07,0,0,1,.48-.85,3.11,3.11,0,0,1,1.79-.47,2.15,2.15,0,0,1,1.16.26c.25.14.39,1.29.43,3.44a17.12,17.12,0,0,0,.21,3.75,1.82,1.82,0,0,0,1,.91,4.07,4.07,0,0,0,1.66.36,2.57,2.57,0,0,0,2.32-1.48,8.27,8.27,0,0,0,.85-4.12V121a12.47,12.47,0,0,1,0-1.27,1.31,1.31,0,0,1,.13-.74,1.12,1.12,0,0,1,.55-.26,4.38,4.38,0,0,0,2.3-1.51,4.55,4.55,0,0,0,.6-1,3.47,3.47,0,0,0,.32-1.49A3.13,3.13,0,0,0,142.74,112.61Zm-10.51-1.72a1.88,1.88,0,0,1-.95-.14c-.11-.08-.16-.34-.16-.76a14.41,14.41,0,0,1,.53-3c.32-1.19.6-1.78.85-1.78s.52,1.2.73,3.6l.16,2.12Z"/><path class="cls-5" d="M163.2,104a4.1,4.1,0,0,0-1.26-1.64,3,3,0,0,0-2-.69,5,5,0,0,0-1.95.48,4.32,4.32,0,0,0-2.69,4.28,11.09,11.09,0,0,0,.21,2.17,25.94,25.94,0,0,1,.37,3.17,3.15,3.15,0,0,1-1.59,3.07,3.21,3.21,0,0,1-1.42.43q-1.32,0-2-1.86a11.74,11.74,0,0,1-.47-4V108a26.81,26.81,0,0,1,1.39-9.23q1.35-3.47,3.78-3.89l.24,0,.29,0a11.19,11.19,0,0,1,2.37.37,11.66,11.66,0,0,0,2.38.42,2,2,0,0,0,1.27-.63,3,3,0,0,0,.89-1.43,4.08,4.08,0,0,0,.16-1.11c0-1.59-.89-3-2.69-4.36a9.65,9.65,0,0,0-5.86-2,6.88,6.88,0,0,0-2.75.53q-2.75,1.07-5.25,4.89a30.76,30.76,0,0,0-3.88,9,29.48,29.48,0,0,0-1.11,7.62A19.42,19.42,0,0,0,142,112a13.32,13.32,0,0,0,1.61,4.26l.22.36a10,10,0,0,0,6.26,4.39,5.86,5.86,0,0,0,1.27.16,9.91,9.91,0,0,0,1.9-.21l1.53-.21a1.08,1.08,0,0,1,.79.31.82.82,0,0,1,.32.64c0,.07-.07.46-.21,1.16a9.44,9.44,0,0,0-.32,2.23,2.34,2.34,0,0,0,.63,1.8,3.4,3.4,0,0,0,2.38.79,4,4,0,0,0,3-1.11,2.91,2.91,0,0,0,.55-1.25q.18-.81.45-3.57,1-11.52,1.06-12.8c0-.56.05-1.3.05-2.22A8.27,8.27,0,0,0,163.2,104Z"/><path class="cls-5" d="M188.25,112.61a.25.25,0,0,0-.16,0q-.48,0-3.48,3.07a46.53,46.53,0,0,1-4.52,4.2,5,5,0,0,1-2.77,1.14h-.53a1.7,1.7,0,0,1-1.42-.79,10.94,10.94,0,0,1-1.48-5.5l-.16-2.49,1.64-.16a11.25,11.25,0,0,0,7.18-3.41,18.1,18.1,0,0,0,4.38-8.28,20.69,20.69,0,0,0,.63-5.29,13,13,0,0,0-.58-4.28,8.68,8.68,0,0,0-2.29-3.5,8.54,8.54,0,0,0-3.78-1.79,10.24,10.24,0,0,0-2-.32,8.68,8.68,0,0,0-1.74.21q-4.49.9-7.47,6.74a35.75,35.75,0,0,0-3.41,14.58c0,.46-.05,1.13-.05,2a33.72,33.72,0,0,0,1.16,9.1,16.32,16.32,0,0,0,3.28,6.5,8.29,8.29,0,0,0,2.69,2,7.14,7.14,0,0,0,3.11.8,4.16,4.16,0,0,0,1.9-.27l.43-.21.76-.37c.3-.14.57-.27.82-.37q3.54-1.64,6.23-7.09,1.84-3.7,1.85-5.5A.86.86,0,0,0,188.25,112.61Zm-12-14.39q1.4-2.85,2.61-2.85a.82.82,0,0,1,.37.1,3.79,3.79,0,0,1,.95,1.7,8,8,0,0,1,.37,2.48,6.65,6.65,0,0,1-1.16,4,3.55,3.55,0,0,1-3,1.64c-.67,0-1.09-.16-1.27-.48a3.07,3.07,0,0,1-.26-1.42A12,12,0,0,1,176.29,98.22Z"/><path class="cls-6" d="M4.24,139.39a2.07,2.07,0,0,1,.76-.94,2.08,2.08,0,0,1,1.37-.23l181.48,14.23c3.75,4.3,7.58,9,11.44,14,3.55,4.62,6.8,9.13,9.78,13.49L201,187.62q-8.79,8.34-17.63,16.64c-36.24-4.07-64.94-6.42-84.91-7.82-9.8-.69-24.66-1.63-56-3.83-16.65-1.17-30.34-2.16-39.49-2.83a3.1,3.1,0,0,1-2-.5A2.86,2.86,0,0,1,0,188.2q1.31-16.74,2.6-33.5A6.19,6.19,0,0,0,3.15,153,6.13,6.13,0,0,0,3,150.33C3.34,144.61,3.81,140.39,4.24,139.39Z"/><path class="cls-7" d="M18.31,172.18a2.68,2.68,0,0,0-.49-.63,5.51,5.51,0,0,0-3.06-1.29c-.87-.14-1.48-.24-1.84-.33-.55-.15-.77-.92-.64-2.31a38.87,38.87,0,0,1,.9-4.82,75.64,75.64,0,0,0,1.71-9.37c.26-2.91,0-5-.75-6.29a2.31,2.31,0,0,0-1.69-1.4,3.16,3.16,0,0,0-.83.08,2.44,2.44,0,0,0-1,.43,4.24,4.24,0,0,0-.84,1l-.64,1.07-.4,4.47q-.3,3.17-.31,7.62t-.08,6l-.16,3.09-.91.16a4.38,4.38,0,0,0-2.41,1.1,3.12,3.12,0,0,0-1.06,2,2.73,2.73,0,0,0,.33,1.51,2.51,2.51,0,0,0,1.11,1.23,11.9,11.9,0,0,0,2.93.5q1.84.16,3.12.24a35,35,0,0,0,5.92.24A2.76,2.76,0,0,0,18.57,174a.81.81,0,0,1,0-.16A2.92,2.92,0,0,0,18.31,172.18Z"/><path class="cls-7" d="M22.63,167h1.2a8.22,8.22,0,0,0,5.47-2A13.3,13.3,0,0,0,33,159.26a14.83,14.83,0,0,0,.81-3.81,9.86,9.86,0,0,0-.13-3.17,6.37,6.37,0,0,0-1.45-2.69A6.16,6.16,0,0,0,29.64,148a7.13,7.13,0,0,0-1.44-.36,6.37,6.37,0,0,0-1.29,0c-2.22.24-4.18,1.72-5.89,4.42a26.32,26.32,0,0,0-3.46,10.4c0,.34-.11.82-.17,1.47a24.63,24.63,0,0,0,.24,6.71c.06.29.12.58.19.86a13.15,13.15,0,0,0,.76,2.32,9,9,0,0,0,1,1.78,6.11,6.11,0,0,0,1.83,1.65,5.4,5.4,0,0,0,2.22.78A3,3,0,0,0,25,178l.33-.12.58-.22.62-.22q2.68-1,5-4.75a10.32,10.32,0,0,0,1.72-3.89.64.64,0,0,0-.11-.51.14.14,0,0,0-.11-.05c-.23,0-1.15.65-2.75,2A34.77,34.77,0,0,1,26.76,173a3.64,3.64,0,0,1-2.1.64l-.38,0a1.27,1.27,0,0,1-1-.67,8.14,8.14,0,0,1-.71-4.12Zm1.43-6.36A8.73,8.73,0,0,1,25.42,157c.81-1.33,1.51-2,2.1-1.91a.66.66,0,0,1,.26.1,2.74,2.74,0,0,1,.58,1.3,6.19,6.19,0,0,1,.11,1.84,5,5,0,0,1-1.11,2.81,2.6,2.6,0,0,1-2.31,1c-.48-.05-.78-.19-.89-.43A2.23,2.23,0,0,1,24.06,160.66Z"/><path class="cls-7" d="M48.3,163.25a9.13,9.13,0,0,0-5.16-2.93A10,10,0,0,1,41,159.6a1.89,1.89,0,0,1-.89-.88,1.78,1.78,0,0,1-.1-1,4.54,4.54,0,0,1,.55-1.86,4.45,4.45,0,0,1,1-1.17c.46-.38.8-.57,1-.55a4.41,4.41,0,0,1,1.32.83,3.26,3.26,0,0,0,1.45.75h.39a2.88,2.88,0,0,0,1.46-.67,1.83,1.83,0,0,0,.77-1.19,3.59,3.59,0,0,0-1.63-3,6.89,6.89,0,0,0-3.85-1.65,4.15,4.15,0,0,0-.93,0,6.65,6.65,0,0,0-2.08.66,10.46,10.46,0,0,0-2,1.18,8.12,8.12,0,0,0-2.78,5.78,6.93,6.93,0,0,0,1.52,5.5,4.77,4.77,0,0,0,3.21,1.34,10.34,10.34,0,0,1,3.59.9,7.29,7.29,0,0,1,2.51,2.11,5.17,5.17,0,0,1,1.3,3.58,3.81,3.81,0,0,1-2.05,2.93A6.2,6.2,0,0,1,41,174a3,3,0,0,1-1.32-.4,2.35,2.35,0,0,1-.79-2.36,2.2,2.2,0,0,0-.37-1.26,2.93,2.93,0,0,0-.94-1,2.7,2.7,0,0,0-1.21-.38,3.3,3.3,0,0,0-1.45.18c-1,.4-1.53,1.41-1.67,3a6.1,6.1,0,0,0,.34,2.64A8.23,8.23,0,0,0,35,176.67a8.51,8.51,0,0,0,1.95,1.83,6.42,6.42,0,0,0,1.31.7,9,9,0,0,0,1.78.28,8.6,8.6,0,0,0,1.84.05,8.76,8.76,0,0,0,1.62-.47,12.52,12.52,0,0,0,2.92-1.81,10.39,10.39,0,0,0,2.31-2.42,10.24,10.24,0,0,0,1.55-4.64A9.42,9.42,0,0,0,48.3,163.25Z"/><path class="cls-7" d="M73.34,155.66a5.86,5.86,0,0,0-2.12-2.31,6.41,6.41,0,0,0-2.76-.88,2.77,2.77,0,0,0-.89,0,7.11,7.11,0,0,0-3.72,2.28A19.55,19.55,0,0,0,60.67,160a28.66,28.66,0,0,0-2.3,9.09l0,.54a24.81,24.81,0,0,0-.06,5.36c.5,3.29,1.66,5.54,3.46,6.77a4.35,4.35,0,0,0,1.11.59,9.49,9.49,0,0,0,1.69.25,6.81,6.81,0,0,0,3-.27,5.69,5.69,0,0,0,2.05-1.18,8.83,8.83,0,0,0,1.6-2,11.71,11.71,0,0,0,1.22-2.51,10.84,10.84,0,0,0,.49-2.41c.11-1.25,0-1.9-.44-1.94a.73.73,0,0,0-.49.19,10.42,10.42,0,0,0-1.59,1.76,20.83,20.83,0,0,1-2.73,2.9,2.7,2.7,0,0,1-1.91.68c-.85-.08-1.49-1-1.91-2.66a18.68,18.68,0,0,1-.32-6.14c0-.13,0-.33.08-.6s.06-.46.07-.59A21.14,21.14,0,0,1,65,162.54a8.39,8.39,0,0,1,2.19-3.38,1.11,1.11,0,0,1,.66-.33c.23,0,.44.35.64,1a2,2,0,0,0,1.94,1.35,3.37,3.37,0,0,0,3-1.28,2.61,2.61,0,0,0,.56-1.43A5,5,0,0,0,73.34,155.66Z"/><path class="cls-7" d="M89.11,159.58a9.23,9.23,0,0,0-2.64-3.88,6.51,6.51,0,0,0-3.67-1.83,4.13,4.13,0,0,0-.78,0q-2.76.45-4.8,4.38a26.75,26.75,0,0,0-2.6,9.91,29.31,29.31,0,0,0,.62,10.09q1.14,4.35,3.47,5.5a4.8,4.8,0,0,0,1.63.45,7.3,7.3,0,0,0,4.85-1.46,8.94,8.94,0,0,0,3.45-4.31,40.78,40.78,0,0,0,.92-5.87c.08-.59.17-1.43.27-2.54Q90.43,163.36,89.11,159.58ZM86.23,172a9.08,9.08,0,0,1-.14,1.15,14,14,0,0,1-1.62,4.56,5.85,5.85,0,0,1-1.15,1.53,1.52,1.52,0,0,1-1.16.36c-.59-.06-1.22-.71-1.91-2a13.64,13.64,0,0,1-1.45-4.17,22.26,22.26,0,0,1,.08-4.7,22.9,22.9,0,0,1,.86-5.14c1-2.78,2-4.13,3-4a1.74,1.74,0,0,1,1.17.84,13.31,13.31,0,0,1,1.88,5.13A22.89,22.89,0,0,1,86.23,172Z"/><path class="cls-7" d="M105.79,159.11a6,6,0,0,0-2.12-2.31,6.53,6.53,0,0,0-2.75-.87,2.85,2.85,0,0,0-.9,0,6,6,0,0,0-1.41.51,7.64,7.64,0,0,0-2.31,1.78,19.39,19.39,0,0,0-3.18,5.21,28.53,28.53,0,0,0-2.3,9.08l0,.54a24.8,24.8,0,0,0-.06,5.36c.5,3.29,1.66,5.55,3.46,6.78a4.26,4.26,0,0,0,1.11.58,9.23,9.23,0,0,0,1.69.26,10,10,0,0,0,1.64,0,4.73,4.73,0,0,0,1.33-.29,5.53,5.53,0,0,0,2-1.17,9.3,9.3,0,0,0,1.6-2,11.52,11.52,0,0,0,1.22-2.52,10.75,10.75,0,0,0,.49-2.4c.11-1.26,0-1.91-.44-2a.8.8,0,0,0-.49.19,10.42,10.42,0,0,0-1.59,1.76,20.83,20.83,0,0,1-2.73,2.9,3,3,0,0,1-1.44.67,1.86,1.86,0,0,1-.47,0c-.85-.07-1.48-1-1.91-2.66a18.61,18.61,0,0,1-.32-6.13c0-.13,0-.33.08-.6s.06-.47.07-.6A21.14,21.14,0,0,1,97.45,166a12.59,12.59,0,0,1,1.16-2.22,4.92,4.92,0,0,1,1-1.15q.42-.36.66-.33c.23,0,.44.35.64,1a2,2,0,0,0,1.94,1.34,3.36,3.36,0,0,0,3-1.28,2.64,2.64,0,0,0,.55-1.42A5,5,0,0,0,105.79,159.11Z"/><path class="cls-7" d="M121.07,163a9.29,9.29,0,0,0-2.63-3.88,6.53,6.53,0,0,0-3.68-1.83,5.2,5.2,0,0,0-.78,0,4.92,4.92,0,0,0-2.54,1.28,10.91,10.91,0,0,0-2.26,3.1,26.56,26.56,0,0,0-2.59,9.91,29.32,29.32,0,0,0,.61,10.09q1.14,4.35,3.48,5.49a6,6,0,0,0,.76.3,5.35,5.35,0,0,0,.87.17,7.4,7.4,0,0,0,4.85-1.47,8.9,8.9,0,0,0,3.44-4.31,40.78,40.78,0,0,0,.92-5.87c.08-.58.17-1.43.27-2.54C122.19,169,122,165.55,121.07,163Zm-2.87,12.38a10.75,10.75,0,0,1-.15,1.15,14.24,14.24,0,0,1-1.61,4.56,6.33,6.33,0,0,1-1.15,1.53,1.54,1.54,0,0,1-1.16.36c-.59,0-1.23-.71-1.92-2a13.63,13.63,0,0,1-.77-1.69,13.78,13.78,0,0,1-.67-2.49,22.07,22.07,0,0,1,.07-4.7,33.55,33.55,0,0,1,.6-4.24,7,7,0,0,1,.26-.89c1-2.79,2-4.14,3-4a1.75,1.75,0,0,1,1.16.84,13.15,13.15,0,0,1,1.88,5.13A22.91,22.91,0,0,1,118.2,175.41Z"/><path class="cls-7" d="M135.26,160q-.88-.54-6.24-1a17,17,0,0,0-4.41-.09,3.15,3.15,0,0,0-2.47,2.77,2.32,2.32,0,0,0,.57,1.9,3,3,0,0,0,2,.82c.72.07,1.14.27,1.26.61a11.13,11.13,0,0,1,.13,2.9q-.08,2.49-.79,10.32-.69,7.67-.93,8.54c-.08.36-.13.59-.14.69a1.27,1.27,0,0,0,.27,1,2.86,2.86,0,0,0,1.17.63,9,9,0,0,0,1.71.43,1.74,1.74,0,0,0,1.39-.38,1.56,1.56,0,0,0,.57-1.08,7.87,7.87,0,0,0-.12-1.68,7.53,7.53,0,0,1,0-1.87c.07-.77.16-1.45.27-2q.35-2.24,1.1-7.84t.89-7.23a2.65,2.65,0,0,1,.5-1.61,3.24,3.24,0,0,1,1.75-.51,3.74,3.74,0,0,0,1.95-.7,2.35,2.35,0,0,0,.67-1.59C136.44,161.49,136.09,160.49,135.26,160Z"/><path class="cls-7" d="M142.62,169.25a4,4,0,0,0-.3-1.37,2.85,2.85,0,0,0-1-1.41,3.67,3.67,0,0,0-1.88-.68,1.61,1.61,0,0,0-.66.06,2.8,2.8,0,0,0-1.69,1.87,2.68,2.68,0,0,0-.23.87A5.31,5.31,0,0,0,137,170a13.28,13.28,0,0,1,0,3.39c0,.23-.21,1.94-.55,5.12-.54,4.87-.91,7.86-1.08,9-.06.33-.11.73-.15,1.19a1.45,1.45,0,0,0,.25,1.11,1.83,1.83,0,0,0,1.34.59,2.85,2.85,0,0,0,2.65-.92c.29-.34.61-2,1-5.12a53.74,53.74,0,0,1,1.08-6.71,47.67,47.67,0,0,0,.88-5.44C142.57,170.66,142.63,169.68,142.62,169.25Zm.62-7.66a3,3,0,0,0-2.58-1.45,3,3,0,0,0-.82,0,2.93,2.93,0,0,0-1.43.72,2.76,2.76,0,0,0-1,1.89,1.94,1.94,0,0,0,.27,1.23,2.82,2.82,0,0,0,2.3,1.19,3.27,3.27,0,0,0,3-1,2.44,2.44,0,0,0,.52-1.39A2,2,0,0,0,143.24,161.59Z"/><path class="cls-7" d="M147.94,181.25h1.21a8.17,8.17,0,0,0,5.46-2,13.13,13.13,0,0,0,3.75-5.74,15.26,15.26,0,0,0,.81-3.81,9.55,9.55,0,0,0-.14-3.17,6.35,6.35,0,0,0-1.44-2.7,6.23,6.23,0,0,0-2.64-1.56,4.91,4.91,0,0,0-2.72-.33c-2.23.24-4.19,1.71-5.9,4.42a26.16,26.16,0,0,0-3.45,10.4c-.06.34-.11.82-.17,1.46a24.6,24.6,0,0,0,.24,6.71,11.85,11.85,0,0,0,2,5,5.73,5.73,0,0,0,1.83,1.64,5.24,5.24,0,0,0,2.21.79,3.22,3.22,0,0,0,1.41-.07l.32-.12.58-.22.62-.22q2.7-1,5-4.75a10.42,10.42,0,0,0,1.71-3.89c0-.26,0-.43-.11-.51a.13.13,0,0,0-.11-.05c-.23,0-1.15.65-2.74,2a34.77,34.77,0,0,1-3.57,2.77,3.76,3.76,0,0,1-2.1.64l-.39,0a1.26,1.26,0,0,1-1-.68,8,8,0,0,1-.72-4.11Zm1.44-6.37a8.6,8.6,0,0,1,1.36-3.64c.8-1.33,1.5-2,2.09-1.91a.69.69,0,0,1,.27.1,2.84,2.84,0,0,1,.58,1.3,6.2,6.2,0,0,1,.1,1.84,4.83,4.83,0,0,1-1.11,2.81,2.58,2.58,0,0,1-2.3,1c-.49,0-.79-.19-.9-.43A2.27,2.27,0,0,1,149.38,174.88Z"/><path class="cls-7" d="M176.39,187.37a1.66,1.66,0,0,0-.88.34c-.18.1-.37.23-.59.38-1.65,1.12-2.67,1.66-3.06,1.63s-.46-.46-.38-1.28a24.52,24.52,0,0,1,.49-2.88,44.22,44.22,0,0,0,.91-5.32,11.15,11.15,0,0,0,.08-1.92,6.07,6.07,0,0,0-.47-1.5,6.37,6.37,0,0,1-.55-1.64c0-.16.28-.44.78-.86a2.57,2.57,0,0,0,.65-.71,3.32,3.32,0,0,0,.21-1,11.52,11.52,0,0,0-.64-5,6.83,6.83,0,0,0-1.32-2.06,9,9,0,0,0-2-1.7,8.38,8.38,0,0,0-3.45-.94,5.26,5.26,0,0,0-2,.09,4.61,4.61,0,0,0-3.35,3.94,2.15,2.15,0,0,0,1.17,2.48.85.85,0,0,1,.61.64,21,21,0,0,1,0,2.57c0,.62,0,1,0,1.16a1.64,1.64,0,0,1-.25.79,1.46,1.46,0,0,1-.43.43,9.78,9.78,0,0,1-1,.49q-1,.38-1.11,1.92a2.63,2.63,0,0,0,.29,1.55,1.37,1.37,0,0,0,1.13.72,1.44,1.44,0,0,1,1,.52,2,2,0,0,1,.23,1.39c-.09,1-.2,1.87-.33,2.77-.09.61-.17,1.39-.26,2.35-.18,2,0,3.28.43,3.84a1.48,1.48,0,0,0,1,.57,2.49,2.49,0,0,0,1.53-.45,3.25,3.25,0,0,0,1.24-1.44,4.45,4.45,0,0,0,.35-1.33c0-.38.06-1.08.08-2.09,0-1.71,0-3.16.16-4.34.12-1.39.3-2.11.51-2.17s.51.08.81.5l.49.55-.36,5.26-.4,5.25.52,1a3.17,3.17,0,0,0,2.46,2,2.44,2.44,0,0,0,.51,0c.77-.19,1.82-1,3.16-2.57a16.82,16.82,0,0,0,1.23-1.53,4.51,4.51,0,0,0,.9-2C176.6,187.54,176.54,187.38,176.39,187.37Zm-6.59-13.79H169l-.35,0a1,1,0,0,1-.87-.45,2.36,2.36,0,0,1-.13-1.32l0-.5c.08-.53.14-1.05.18-1.54,0-.07.29,0,.79.35a2.22,2.22,0,0,1,.87,1.07,4,4,0,0,1,.32,1.57Z"/><path class="cls-7" d="M190.53,179.18a9.16,9.16,0,0,0-5.17-2.93,10.09,10.09,0,0,1-2.18-.72,1.68,1.68,0,0,1-1-1.86,4.65,4.65,0,0,1,.56-1.86,4.11,4.11,0,0,1,1-1.17c.46-.38.79-.57,1-.55a4.51,4.51,0,0,1,1.32.82,3.2,3.2,0,0,0,1.45.76,2.52,2.52,0,0,0,.39,0,2.81,2.81,0,0,0,1.45-.67,1.79,1.79,0,0,0,.77-1.19,3.57,3.57,0,0,0-1.63-3,6.86,6.86,0,0,0-3.84-1.65,3.62,3.62,0,0,0-.93,0,6.69,6.69,0,0,0-2.09.66,10.66,10.66,0,0,0-2,1.18,8.12,8.12,0,0,0-2.78,5.77,6.9,6.9,0,0,0,1.52,5.51,4.78,4.78,0,0,0,3.21,1.34,10.34,10.34,0,0,1,3.59.9,7.26,7.26,0,0,1,2.5,2.11,5.13,5.13,0,0,1,1.31,3.58,3.81,3.81,0,0,1-2.05,2.93,6.24,6.24,0,0,1-3.69.83,2.94,2.94,0,0,1-1.32-.4,2.36,2.36,0,0,1-.8-2.37,2.1,2.1,0,0,0-.37-1.25,2.91,2.91,0,0,0-.93-1,2.78,2.78,0,0,0-1.21-.38,3.28,3.28,0,0,0-1.45.18c-1,.4-1.53,1.4-1.67,3h0a5.82,5.82,0,0,0,.17,2.08,4,4,0,0,0,.17.56,9.41,9.41,0,0,0,3.28,4.07,6.42,6.42,0,0,0,1.31.7,8.82,8.82,0,0,0,1.78.28,9.35,9.35,0,0,0,1.84.05,8.72,8.72,0,0,0,1.61-.47,12.56,12.56,0,0,0,2.93-1.81,10.39,10.39,0,0,0,2.31-2.42,10.24,10.24,0,0,0,1.55-4.64A9.46,9.46,0,0,0,190.53,179.18Z"/><path class="cls-8" d="M209.85,211.86a1.94,1.94,0,0,0-.75-1.12,2.08,2.08,0,0,0-1.12-.37q-43.35.65-86.71.75-46.33.1-92.68-.38a6.86,6.86,0,0,0-1.87.38,7,7,0,0,0-1.5.74,87.73,87.73,0,0,1-10.46,10c-2.54,2-4.82,4.43-7.48,6.32s-5.3,3.42-5.23,5.57a3.26,3.26,0,0,0,.75,1.86c2.1,2.9,3.58,6.27,6,8.93,3.08,3.41,8,9.42,15,17.84H208.36a2,2,0,0,0,.74-.37,2.56,2.56,0,0,0,.75-2.23V249a4.54,4.54,0,0,1-3.36-3.35,4.69,4.69,0,0,1,3.36-5.2Z"/><path class="cls-9" d="M41.76,251.35a3.76,3.76,0,0,0-.52-2.14,3.59,3.59,0,0,0-1-1,7.47,7.47,0,0,0-3.6-1c-1.08-.06-1.85-.12-2.29-.19-.7-.12-1-1.05-1-2.77a47.14,47.14,0,0,1,.57-6,93.15,93.15,0,0,0,1-11.72q0-5.42-1.62-7.66a2.87,2.87,0,0,0-2.25-1.53,4.47,4.47,0,0,0-1,.19,3,3,0,0,0-1.24.65,5,5,0,0,0-.91,1.36l-.67,1.39v5.55q0,3.93.48,9.4t.57,7.35l.15,3.82-1.1.29A5.41,5.41,0,0,0,24.5,249a3.78,3.78,0,0,0-1.08,2.58,3.26,3.26,0,0,0,.57,1.82,3.08,3.08,0,0,0,1.51,1.39,14.35,14.35,0,0,0,3.65.28c1.53,0,2.82,0,3.87,0q6.78-.09,7.31-.38c.92-.51,1.4-1.56,1.43-3.16Z"/><path class="cls-9" d="M58.63,242.05a.2.2,0,0,0-.14,0c-.29,0-1.34.92-3.15,2.77a41.32,41.32,0,0,1-4.09,3.8,4.51,4.51,0,0,1-2.5,1h-.48a1.55,1.55,0,0,1-1.29-.72,9.92,9.92,0,0,1-1.34-5l-.14-2.25,1.48-.14a10.14,10.14,0,0,0,6.49-3.09,16.21,16.21,0,0,0,4-7.49,18.65,18.65,0,0,0,.57-4.78,11.85,11.85,0,0,0-.53-3.88A7,7,0,0,0,52,217.51a9.28,9.28,0,0,0-1.81-.29,8.4,8.4,0,0,0-1.58.19q-4.05.83-6.76,6.1a32.45,32.45,0,0,0-3.08,13.19c0,.41,0,1,0,1.81a30.33,30.33,0,0,0,1.05,8.23c.14.53.31,1,.48,1.52a15.32,15.32,0,0,0,1.51,3.09,10.48,10.48,0,0,0,1,1.28,7.3,7.3,0,0,0,2.43,1.81,6.48,6.48,0,0,0,2.82.72,3.87,3.87,0,0,0,1.72-.24l.38-.19.69-.33.74-.34q3.21-1.49,5.64-6.41a12.93,12.93,0,0,0,1.67-5A.78.78,0,0,0,58.63,242.05ZM47.81,229c.85-1.72,1.63-2.58,2.37-2.58a.82.82,0,0,1,.33.09,3.33,3.33,0,0,1,.86,1.53,7.51,7.51,0,0,1,.34,2.25,6.07,6.07,0,0,1-1.06,3.59,3.19,3.19,0,0,1-2.72,1.48c-.6,0-1-.14-1.14-.43a2.71,2.71,0,0,1-.24-1.29A10.77,10.77,0,0,1,47.81,229Z"/><path class="cls-9" d="M86.06,217.92c-.77-.39-3.36-.58-7.79-.58-3,0-4.83.13-5.44.39a3.9,3.9,0,0,0-2.72,3.68,2.83,2.83,0,0,0,.91,2.27,3.69,3.69,0,0,0,2.53.79q1.33,0,1.62.6a14.37,14.37,0,0,1,.48,3.56q.19,3.06.19,12.78,0,9.51-.19,10.62a6.86,6.86,0,0,0-.1.86,1.53,1.53,0,0,0,.46,1.22,3.4,3.4,0,0,0,1.5.65,11.22,11.22,0,0,0,2.15.33,2.17,2.17,0,0,0,1.67-.62,1.9,1.9,0,0,0,.57-1.39,8.83,8.83,0,0,0-.33-2.06,9.13,9.13,0,0,1-.24-2.29c0-1,0-1.8.1-2.54q.18-2.77.47-9.76t.29-9a3.34,3.34,0,0,1,.43-2,4.05,4.05,0,0,1,2.1-.83A4.6,4.6,0,0,0,87,223.49a2.88,2.88,0,0,0,.64-2Q87.68,218.77,86.06,217.92Z"/><path class="cls-9" d="M97.18,218.73a3.66,3.66,0,0,0-3.34-1.48,4.23,4.23,0,0,0-1,.09,3.72,3.72,0,0,0-1.67,1,3.38,3.38,0,0,0-1,2.45,2.37,2.37,0,0,0,.48,1.48,3.47,3.47,0,0,0,3,1.19A4,4,0,0,0,97.08,222a3.1,3.1,0,0,0,.48-1.77A2.53,2.53,0,0,0,97.18,218.73Zm.1,9.5a5.1,5.1,0,0,0-.53-1.65A3.58,3.58,0,0,0,95.41,225a4.48,4.48,0,0,0-2.39-.62,1.84,1.84,0,0,0-.81.14A3.47,3.47,0,0,0,90.35,227a3.4,3.4,0,0,0-.19,1.1,7,7,0,0,0,.33,1.77,15.83,15.83,0,0,1,.39,4.16c0,.29,0,2.41-.1,6.36q-.19,9.09-.33,11.15c0,.41,0,.91,0,1.48a1.87,1.87,0,0,0,.39,1.3l0,.05a2.33,2.33,0,0,0,1.72.57,3.51,3.51,0,0,0,3.15-1.44c.32-.44.52-2.58.62-6.41,0-1,.06-2,.1-2.83a50.91,50.91,0,0,1,.47-5.54,55.31,55.31,0,0,0,.48-6.79Q97.37,229,97.28,228.23Z"/><path class="cls-9" d="M121.88,218.54a14.62,14.62,0,0,0-5.07-.67,15,15,0,0,0-3.34.33,11.62,11.62,0,0,0-2,.78,4.78,4.78,0,0,0-2.89,4.44,2.55,2.55,0,0,0,0,.31c0,.14,0,.25,0,.31a2.86,2.86,0,0,0,.62,1.75,2.62,2.62,0,0,0,1.77.45h.45a2.84,2.84,0,0,1,1.17.18q.24.15.24,1.92v.81a13.55,13.55,0,0,1-.17,2.15c-.08.35-.26.53-.55.53a2.28,2.28,0,0,1-.69-.16,8.87,8.87,0,0,1-.93-.37,7.37,7.37,0,0,0-2.39-.62c-1.11,0-1.93.69-2.43,2.06a4.14,4.14,0,0,0-.29,1.43,3.3,3.3,0,0,0,1.17,2.44,12.89,12.89,0,0,0,3.7,2.2l1.17.52,1.41.63,0,1c0,.09,0,.36,0,.79s-.06.9-.09,1.41-.08,1-.14,1.43a55,55,0,0,0-.24,5.79,17.09,17.09,0,0,0,.24,4,1.51,1.51,0,0,0,1.62,1.14,5.42,5.42,0,0,0,2.48-.81,3,3,0,0,0,1.58-1.89,37.74,37.74,0,0,0,.38-5.91l.15-5.31.71-.77a5.89,5.89,0,0,1,2.58-1.14,8.53,8.53,0,0,0,1.72-.53,4.94,4.94,0,0,0,1.19-1,11.64,11.64,0,0,0,1.82-2.7,15.86,15.86,0,0,0,1.33-3.42,14.86,14.86,0,0,0,.39-3.64Q128.47,221.13,121.88,218.54Zm0,15.26a3.07,3.07,0,0,1-1.19.29c-.89,0-1.34-.43-1.34-1.29a.75.75,0,0,1,0-.17,1.8,1.8,0,0,0,0-.22c0-.19.08-.78.14-1.77s.15-1.94.24-2.84a4.93,4.93,0,0,1,.34-1.65c.12-.26.41-.39.86-.39a2,2,0,0,1,1.38.48,4.25,4.25,0,0,1,1.34,3.54C123.74,231.89,123.13,233.23,121.92,233.8Z"/><path class="cls-9" d="M145.53,220.16a5,5,0,0,0-1.2-1.48,4.65,4.65,0,0,0-1-.72,3.38,3.38,0,0,0-1.12-.14,3.14,3.14,0,0,0-2,.67c-1.15,1-1.72,2.55-1.72,4.79a33.66,33.66,0,0,0,.33,4.35q.33,2.63.53,9.18c.06,2.56.09,4,.09,4.36a14.61,14.61,0,0,1-.33,3.68,16.49,16.49,0,0,1-1,2.82c-.4.83-.71,1.25-.93,1.25-.48,0-.87-.7-1.17-2.08a25.06,25.06,0,0,1-.46-5.19,43.27,43.27,0,0,1,.25-4.36q.66-6,.76-13.11V222a9.38,9.38,0,0,0-.1-1.79,1.72,1.72,0,0,0-.43-.79,3.62,3.62,0,0,0-2.77-1.34,3.82,3.82,0,0,0-3,1.53l-.67.81.23,5.7q.19,4.16.2,15c0,4.47,0,7.19.09,8.18a5.49,5.49,0,0,0,.48,2.2,8.27,8.27,0,0,0,1.62,2,7.66,7.66,0,0,0,2,1.48,5.77,5.77,0,0,0,1.91.29,6.39,6.39,0,0,0,2.53-.43,9.62,9.62,0,0,0,3.29-2.75,8.54,8.54,0,0,0,2-3.76,90.43,90.43,0,0,0,1.48-15.21c.2-4.43.34-7.5.43-9.19,0-.44.05-1,.05-1.72A5.63,5.63,0,0,0,145.53,220.16Z"/><path class="cls-9" d="M163.69,225.62a15.44,15.44,0,0,0,.33-3.06,5.59,5.59,0,0,0-1.53-4.21,3.1,3.1,0,0,0-2.19-1,3.94,3.94,0,0,0-1,.19q-3.1,1-3.1,5.79a22.59,22.59,0,0,0,.48,4.44c.31,1.76.48,2.65.48,2.68a.43.43,0,0,1-.05.15q-.1,0-.39-.63a25.74,25.74,0,0,1-3-8.46,9.52,9.52,0,0,0-.57-2.68,3.07,3.07,0,0,0-2.77-1.15,3.18,3.18,0,0,0-2.19.72,4.59,4.59,0,0,0-1,3.39c0,.35.07,1.71.2,4.07.12,2.55.19,4.51.19,5.88,0,.74-.07,3.59-.19,8.57-.2,6.09-.29,9.85-.29,11.29s.16,2.45.48,2.78a2.18,2.18,0,0,0,1.57.47,4,4,0,0,0,1.82-.38,2.35,2.35,0,0,0,1.24-1.27,12.91,12.91,0,0,0,.28-3.47c0-.47,0-1.89-.09-4.25-.07-2.81-.1-4.47-.1-5,0-2.42.16-3.64.48-3.64s1.18,1.38,2.58,4.12l1.19,2.3q0,1.71.15,5.19c.06,2.31.11,4.05.14,5.23l.67.58a2.47,2.47,0,0,0,1.67.57,3.55,3.55,0,0,0,1.77-.5,3.48,3.48,0,0,0,1.33-1.36,10.24,10.24,0,0,0,.43-3.83c0-1.5,0-2.82,0-4v-1.91Q162.64,230.89,163.69,225.62Z"/><path class="cls-9" d="M181.5,241.6a.91.91,0,0,0-.57.29,12.56,12.56,0,0,0-1.77,2.34,24.47,24.47,0,0,1-3,3.87,3.31,3.31,0,0,1-2.27,1.06c-1.05,0-1.93-1-2.65-3.07a23,23,0,0,1-1.07-7.51c0-.16,0-.4,0-.74s0-.58,0-.74a25.86,25.86,0,0,1,1.13-6.65,10.17,10.17,0,0,1,2.31-4.4,1.32,1.32,0,0,1,.77-.48c.28,0,.58.38.91,1.15a2.45,2.45,0,0,0,2.52,1.43,4.17,4.17,0,0,0,3.59-1.91,3.28,3.28,0,0,0,.52-1.82,6.18,6.18,0,0,0-1.14-3.37,7.45,7.45,0,0,0-2.87-2.61,8.06,8.06,0,0,0-3.49-.76,3.66,3.66,0,0,0-1.09.14,8.85,8.85,0,0,0-4.32,3.23,23.81,23.81,0,0,0-3.32,6.77,35.11,35.11,0,0,0-1.82,11.43v.67a30.05,30.05,0,0,0,.53,6.61q1.47,6,5,7.94a5.72,5.72,0,0,0,1.43.6,13.64,13.64,0,0,0,2.1.11,8.47,8.47,0,0,0,3.63-.66,6.87,6.87,0,0,0,2.39-1.68,11.33,11.33,0,0,0,1.74-2.65,14.23,14.23,0,0,0,1.22-3.23,13.44,13.44,0,0,0,.34-3C182.27,242.38,182,241.6,181.5,241.6Z"/><path class="cls-9" d="M204.67,236.81a4.32,4.32,0,0,0-2-2.87c-.22-.12-.33-.59-.33-1.38,0-1.06.06-2.81.19-5.27.16-3,.23-4.72.23-5.26a5.05,5.05,0,0,0-.38-2.1,3.14,3.14,0,0,0-1.48-1.51,4.62,4.62,0,0,0-2.19-.55,3.32,3.32,0,0,0-2.06.62,3.18,3.18,0,0,0-1.14,1.34,7.51,7.51,0,0,0-.29,2.49c0,1,0,1.86.05,2.53q.24,5.79.28,6.37l.15,2.15H194c-1,0-1.53-.1-1.53-.29a.69.69,0,0,1,.05-.28c.06-.23.15-2.41.28-6.56.07-2.36.1-3.7.1-4a7,7,0,0,0-.43-2.92,3.14,3.14,0,0,0-3.06-1.67,3.84,3.84,0,0,0-1.62.33,3.1,3.1,0,0,0-1.05.67,2.73,2.73,0,0,0-.43,1.3,22.9,22.9,0,0,0-.15,3.15c0,.26,0,.77,0,1.54s0,1.38,0,1.86l.1,6.84-.62-.14-.12,0-.12,0a3.69,3.69,0,0,0-1.72.55,3.74,3.74,0,0,0-1.39,1.17,4.16,4.16,0,0,0-.67,2.11,3,3,0,0,0,.34,1.29,3.4,3.4,0,0,0,3,2l1.29.14v2c0,1.57-.08,3.7-.24,6.42-.06.92-.1,2-.1,3.34a5.54,5.54,0,0,0,.1,1.49c.38.63,1.27.95,2.67.95a3.61,3.61,0,0,0,1.68-.33,4.82,4.82,0,0,0,1.19-.86c.29-.29.43-1.3.43-3,0-1.37,0-2.56-.05-3.58l-.09-6h4.25v2.49c0,1.89-.08,3.94-.24,6.17-.07.74-.1,1.62-.1,2.63a5.68,5.68,0,0,0,.24,2,1.89,1.89,0,0,0,.86.91,3.64,3.64,0,0,0,1.62.38,5,5,0,0,0,1.8-.43,4.09,4.09,0,0,0,1.41-.86,7.59,7.59,0,0,0,.19-2.25c0-.29,0-1.58-.1-3.88s-.09-3.65-.09-4.06a7.66,7.66,0,0,1,.28-2.66,2.52,2.52,0,0,1,1.29-1.07,2.41,2.41,0,0,0,1.58-2.3A4.11,4.11,0,0,0,204.67,236.81Z"/><path class="cls-10" d="M.8,279.77a2.15,2.15,0,0,1,.62-1,2.12,2.12,0,0,1,1.33-.41L184.49,268c4.29,3.76,8.71,7.85,13.21,12.3,4.14,4.09,8,8.13,11.5,12.05-2.32,2.92-4.65,5.82-7,8.73Q194.63,310.58,187,320c-36.47.84-65.22,2.38-85.19,3.67-9.81.64-24.66,1.71-56,3.74-16.64,1.08-30.34,1.94-39.5,2.5a3,3,0,0,1-2-.22,2.86,2.86,0,0,1-1.07-.94q-1-16.77-1.91-33.55a6.22,6.22,0,0,0,.32-1.75,6.1,6.1,0,0,0-.48-2.64C.6,285.07.51,280.83.8,279.77Z"/><path class="cls-11" d="M23.72,295.49q-.42-6.64-6.61-8.63a13.44,13.44,0,0,0-4.67-.32,14.6,14.6,0,0,0-3,.5,7.13,7.13,0,0,0-3.33,2.14,4.09,4.09,0,0,0-.86,2.93,2.22,2.22,0,0,0,0,.28,1.3,1.3,0,0,1,0,.28A2.67,2.67,0,0,0,6,294.23a2.38,2.38,0,0,0,1.65.32,3.65,3.65,0,0,1,1.5.07q.22.12.33,1.74l0,.75a12.7,12.7,0,0,1,0,2c-.06.32-.21.5-.47.51a4.51,4.51,0,0,1-1.52-.39,6.6,6.6,0,0,0-2.22-.42c-1,.06-1.73.74-2.11,2A3.58,3.58,0,0,0,3,302.14a3,3,0,0,0,1.21,2.17,12.21,12.21,0,0,0,3.52,1.79l2.43.9v1.61c0,.39,0,.83,0,1.29s0,.91,0,1.33a48.82,48.82,0,0,0,.12,5.31,15.41,15.41,0,0,0,.45,3.62,1.38,1.38,0,0,0,1.55.95,5,5,0,0,0,2.23-.89,2.72,2.72,0,0,0,1.33-1.82,34.46,34.46,0,0,0,0-5.43l-.18-4.87.61-.74a5.32,5.32,0,0,1,2.3-1.2,9,9,0,0,0,1.54-.58,4.84,4.84,0,0,0,1-.95,11.41,11.41,0,0,0,1.5-2.58,14.68,14.68,0,0,0,.88-2.56c.06-.22.1-.44.14-.65A13.66,13.66,0,0,0,23.72,295.49Zm-5.67,5.33a2.9,2.9,0,0,1-1.08.34,1.07,1.07,0,0,1-1.3-1.11,1,1,0,0,1,0-.15.7.7,0,0,0,0-.2c0-.18,0-.72,0-1.63q0-1,0-2c0-.21,0-.41,0-.61a4.84,4.84,0,0,1,.21-1.53c.1-.24.36-.37.77-.4a1.83,1.83,0,0,1,1.29.36A3.86,3.86,0,0,1,19.47,297a6.72,6.72,0,0,1,0,1A3.13,3.13,0,0,1,18.05,300.82Z"/><path class="cls-11" d="M40.18,308.81a2.6,2.6,0,0,0-1.13-1.75,2.91,2.91,0,0,0-2-.82c-.32,0-.58-1.57-.79-4.78,0-.25,0-.5-.05-.74q-.84-11.06-4-14.13a3.87,3.87,0,0,0-2.85-1.35,2.43,2.43,0,0,0-1.28.47q-1.35,1-2.06,4.51a71.23,71.23,0,0,0-1,9.69c0,.42,0,.86-.07,1.3,0,.24,0,.5,0,.8-.14,2.82-.3,4.37-.49,4.64s-.39.27-.94.42a5.84,5.84,0,0,0-2.36,1.2,2.07,2.07,0,0,0-.84,1.6,3.55,3.55,0,0,0,1.18,2,5.51,5.51,0,0,0,2.34,1.52,1.07,1.07,0,0,1,.5.3.88.88,0,0,1,0,.55A12.26,12.26,0,0,0,24.2,317a2.18,2.18,0,0,0,.08.57c.25.8,1.08,1.16,2.48,1.07a4.18,4.18,0,0,0,1.81-.51,1.7,1.7,0,0,0,.94-1.16,2.53,2.53,0,0,0,0-.57,9.25,9.25,0,0,0-.22-1.53c0-.14-.08-.3-.12-.47s-.07-.31-.1-.41a1.39,1.39,0,0,1,0-.24.87.87,0,0,1,.35-.73,2.62,2.62,0,0,1,1.46-.49,1.85,1.85,0,0,1,1,.16c.21.1.39,1.05.53,2.82a14.07,14.07,0,0,0,.38,3.1,1.49,1.49,0,0,0,.9.69,3.22,3.22,0,0,0,1.39.22,2.14,2.14,0,0,0,1.85-1.35,7,7,0,0,0,.48-3.46l0-.53c0-.31-.09-.66-.12-1a1.26,1.26,0,0,1,.07-.62.84.84,0,0,1,.45-.25,3.62,3.62,0,0,0,1.82-1.37A3.23,3.23,0,0,0,40.18,308.81Zm-9.91-2.61a1.66,1.66,0,0,1-.8-.07c-.09-.06-.15-.27-.17-.62a12.39,12.39,0,0,1,.28-2.55c.2-1,.4-1.5.6-1.51s.5,1,.81,2.94l.24,1.74Z"/><path class="cls-11" d="M56.06,312.46c-.08-1.38-.18-2.59-.27-3.64l-.11-1.75q-.48-7.43-.35-12.08a38.65,38.65,0,0,1,.28-4.09,14.5,14.5,0,0,0,.13-2.82,5.16,5.16,0,0,0-1.65-3.77,2.82,2.82,0,0,0-2.07-.83,3.7,3.7,0,0,0-.91.23c-1.85.77-2.68,2.59-2.5,5.48a20.63,20.63,0,0,0,.7,4.05c.39,1.58.59,2.39.59,2.42a.45.45,0,0,1,0,.13q-.09,0-.39-.54a23.74,23.74,0,0,1-3.25-7.58,9,9,0,0,0-.68-2.42,2.85,2.85,0,0,0-2.6-.88,2.91,2.91,0,0,0-2,.78,4.28,4.28,0,0,0-.72,3.17c0,.32.16,1.56.41,3.71.27,2.33.44,4.12.52,5.37q0,.53.12,2.61c.06,1.29.12,3,.21,5.24q.27,8.38.4,10.35a4.32,4.32,0,0,0,.59,2.52,2,2,0,0,0,1.47.34,3.55,3.55,0,0,0,1.64-.46,2.17,2.17,0,0,0,1.07-1.23,11.82,11.82,0,0,0,.05-3.19c0-.44-.14-1.74-.33-3.89-.23-2.56-.35-4.08-.38-4.55-.14-2.22-.07-3.34.22-3.35s1.16,1.18,2.61,3.61l1.22,2c.1,1.05.24,2.63.44,4.74s.34,3.71.43,4.79l.65.48a2.23,2.23,0,0,0,1.56.43,3.09,3.09,0,0,0,1.59-.56A3.22,3.22,0,0,0,55.9,316,9.65,9.65,0,0,0,56.06,312.46Z"/><path class="cls-11" d="M63.78,285.41a2.27,2.27,0,0,0-.44-1.34,3.36,3.36,0,0,0-3.14-1.16,3.86,3.86,0,0,0-.92.15,3.36,3.36,0,0,0-1.46,1.06,3,3,0,0,0-.82,2.29,2.11,2.11,0,0,0,.52,1.33,3.18,3.18,0,0,0,2.78.92,3.71,3.71,0,0,0,3.15-1.61A2.87,2.87,0,0,0,63.78,285.41Zm.47,16.94a54.4,54.4,0,0,0,0-6.25c-.12-1.75-.22-2.86-.3-3.34a4.83,4.83,0,0,0-.58-1.48,5.41,5.41,0,0,0-.58-.83,2.35,2.35,0,0,0-.74-.58,4,4,0,0,0-2.22-.43,1.7,1.7,0,0,0-.74.18A3.21,3.21,0,0,0,57.57,292a3.35,3.35,0,0,0-.11,1,3.61,3.61,0,0,0,.14.74c.06.26.16.54.27.86a14.91,14.91,0,0,1,.6,3.79c0,.26.11,2.2.28,5.83q.36,8.33.34,10.22c0,.38,0,.83,0,1.36a1.66,1.66,0,0,0,.47,1.2,2.11,2.11,0,0,0,1.61.42,3.19,3.19,0,0,0,2.8-1.5c.26-.42.33-2.39.19-5.9A59.42,59.42,0,0,1,64.25,302.35Z"/><path class="cls-11" d="M93.21,291q-.42-6.66-6.6-8.63a16.84,16.84,0,0,0-7.72.18q-4.41,1.56-4.19,5.06a2.16,2.16,0,0,0,0,.29c0,.13,0,.22,0,.28a2.58,2.58,0,0,0,.67,1.56,2.29,2.29,0,0,0,1.64.31,3.77,3.77,0,0,1,1.5.08q.22.12.33,1.74l0,.74a12.62,12.62,0,0,1,0,2c-.06.33-.21.5-.48.52a4.53,4.53,0,0,1-1.51-.39,7,7,0,0,0-2.22-.43c-1,.07-1.73.74-2.11,2a3.58,3.58,0,0,0-.18,1.33,3,3,0,0,0,1.21,2.16,11.94,11.94,0,0,0,3.52,1.8l2.42.9,0,.88v.72c0,.4,0,.83,0,1.3s0,.91,0,1.32a51.67,51.67,0,0,0,.12,5.32,15.41,15.41,0,0,0,.45,3.62,1.39,1.39,0,0,0,1.55,1,5.12,5.12,0,0,0,2.23-.89A2.77,2.77,0,0,0,85.24,314a34.49,34.49,0,0,0,0-5.43l-.18-4.87.61-.74a5.21,5.21,0,0,1,2.3-1.2,8,8,0,0,0,1.54-.59,4.74,4.74,0,0,0,1-.94,11.41,11.41,0,0,0,1.5-2.58,14.16,14.16,0,0,0,1-3.21A13.68,13.68,0,0,0,93.21,291Zm-5.67,5.33a2.86,2.86,0,0,1-1.08.33,1.07,1.07,0,0,1-1.3-1.1s0-.08,0-.16a1.28,1.28,0,0,0,0-.19c0-.18,0-.72,0-1.63s0-1.78.05-2.62a4.84,4.84,0,0,1,.21-1.53.8.8,0,0,1,.77-.4,1.76,1.76,0,0,1,1.3.36A3.9,3.9,0,0,1,89,292.59C89.09,294.51,88.61,295.77,87.54,296.37Z"/><path class="cls-11" d="M111.07,286q.21-1.38.27-2.22a4.4,4.4,0,0,0,0-.79,3.48,3.48,0,0,0-.5-1.59,3,3,0,0,0-1.46-1.29,3,3,0,0,0-1.22-.17,3.49,3.49,0,0,0-1.38.4,4.33,4.33,0,0,0-1.36,1.23,2.34,2.34,0,0,0-.57,1.49c0,.2.25,1.56.7,4.09a14.41,14.41,0,0,1,.32,2.31c.08,1.16,0,1.76-.37,1.78-.17,0-.51-.2-1-.64a2,2,0,0,0-1.44-.57,2.82,2.82,0,0,0-2.21,1.81l-.39.73-.2-3.06q-.32-4.29-1.22-5.33a5.1,5.1,0,0,0-.45-.47,3.32,3.32,0,0,0-2.54-1,3.13,3.13,0,0,0-2.56,1.71,3.33,3.33,0,0,0-.45,2,8.13,8.13,0,0,0,1,3,15.74,15.74,0,0,1,1.22,2.91q.38,1.31,1.15,5.38.93,4.9,1.74,7.85c.17.68.33,1.33.46,1.93a26.19,26.19,0,0,1,.55,3.59,6.31,6.31,0,0,0,.61,2.73,2,2,0,0,0,2,1.15,2.58,2.58,0,0,0,1.9-1.14,2.38,2.38,0,0,0,.57-1.44c0-.38-.06-.71-.11-1a26.67,26.67,0,0,0-.68-3,8.26,8.26,0,0,1-.32-1.56,6.8,6.8,0,0,1,.06-1.23c.13-1.16.33-2.49.6-4a8.63,8.63,0,0,1,.53-2.3,15.09,15.09,0,0,1,1,3.06,37,37,0,0,1,1.35,5.93,18,18,0,0,1,0,2.29,17.82,17.82,0,0,0,0,2.42,1.61,1.61,0,0,0,.08.53c.23.51.86.73,1.88.67a3.75,3.75,0,0,0,1.68-.51,1.7,1.7,0,0,0,1-1.56,5.62,5.62,0,0,0-.35-1.47,10.07,10.07,0,0,1-.58-2.78,22.9,22.9,0,0,1,.09-3.43,32.77,32.77,0,0,0,.06-4.62c-.09-1.32-.06-3.62.08-6.93A64.88,64.88,0,0,1,111.07,286Z"/><path class="cls-11" d="M129.06,299.16c0-.63-.06-1.5-.13-2.64,0-.08,0-.17,0-.25-.07-1-.16-2-.28-3s-.28-2-.46-3a21.1,21.1,0,0,0-1.74-5.33l-.15-.3q-.21-.39-.45-.75a10.45,10.45,0,0,0-3.18-3.13,7.38,7.38,0,0,0-4.43-1.41,6.63,6.63,0,0,0-.87.15c-2,.65-3.55,2.57-4.62,5.74l-.09.29a30.65,30.65,0,0,0-1.08,11.26A33.49,33.49,0,0,0,114,308c1.35,3.11,3,4.95,4.85,5.54a5.78,5.78,0,0,0,1.9.23,8.39,8.39,0,0,0,5.18-2.49,10.35,10.35,0,0,0,2.58-3.7,10,10,0,0,0,.4-1.24l.12-.49A46.28,46.28,0,0,0,129.06,299.16Zm-3.79,1.21a16,16,0,0,1-1,5.39,7,7,0,0,1-1,1.91,1.74,1.74,0,0,1-1.24.6q-1,.08-2.49-1.86a15.28,15.28,0,0,1-2.34-4.42,24.2,24.2,0,0,1-.73-5.27,25.92,25.92,0,0,1,.06-5.9c.11-.57.23-1.09.35-1.57.61-2.26,1.39-3.42,2.35-3.48a2,2,0,0,1,1.46.74,13.64,13.64,0,0,1,2.66,4.52c.11.29.22.59.34.89a26,26,0,0,1,1.57,7.13C125.27,299.67,125.28,300.11,125.27,300.37Z"/><path class="cls-11" d="M143.67,302.88a19.87,19.87,0,0,0-2.86-8.47l-1.09-1.87.37-1.07a10.41,10.41,0,0,0,.54-3.91,8.57,8.57,0,0,0-.19-1.36,9.12,9.12,0,0,0-3.4-5.31,12.32,12.32,0,0,0-3-1.9,7.74,7.74,0,0,0-3.15-.48,3.5,3.5,0,0,1-.48,0H130a3.93,3.93,0,0,0-1.73.46,4.93,4.93,0,0,0-1.63,1.6,4.4,4.4,0,0,0-.81,2,5.24,5.24,0,0,0,0,.88c0,.2,0,.36,0,.49a1.13,1.13,0,0,0,0,.2,2.33,2.33,0,0,0,.55.85l.38.35a2.84,2.84,0,0,0,1.34.68.74.74,0,0,1,.4.11c.15.08.34.72.56,1.94a2.1,2.1,0,0,1,.07.43c.1.55.18,1,.25,1.46.12.78.2,1.34.22,1.68a1.16,1.16,0,0,1-.46,1.17,1.66,1.66,0,0,0-.56.47,2.12,2.12,0,0,0-.25.42,2.5,2.5,0,0,0-.28,1.25,1.2,1.2,0,0,0,0,.17,1.05,1.05,0,0,1,0,.18,2.7,2.7,0,0,0,.75,1.21l0,0a3.34,3.34,0,0,0,1.32.82,1.06,1.06,0,0,1,.6.33A5.12,5.12,0,0,1,131,299c.05.79.19,2.05.42,3.79l.29,2.4-.61,0a2.73,2.73,0,0,0-2,.92,2.83,2.83,0,0,0-.2.28,2.68,2.68,0,0,0-.4,1.24,3.83,3.83,0,0,0,0,.59,5.35,5.35,0,0,0,.41,1.69,4.2,4.2,0,0,0,1.92,2.16,7.8,7.8,0,0,0,3.57.56l.74,0a9.87,9.87,0,0,0,5.4-2,8.75,8.75,0,0,0,1.09-1,7.87,7.87,0,0,0,1.85-3.74A11.15,11.15,0,0,0,143.67,302.88Zm-9-12.89a6.2,6.2,0,0,1-.17-1.37c0-.16,0-.31,0-.44a5.1,5.1,0,0,1,0-.84c0-.18.15-.27.36-.28s.56.19.91.65c.11.15.24.33.37.54a4.78,4.78,0,0,1,.81,2.1c0,.41-.1.62-.4.64a2,2,0,0,1-1.12-.41A1.83,1.83,0,0,1,134.64,290Zm4.89,14.08c-.25,1-1.11,1.57-2.57,1.66l-.87.06-.51-3.88c-.17-1.31-.28-2.27-.32-2.88a4.08,4.08,0,0,1,.05-1.28.52.52,0,0,1,.51-.34c.14,0,.51.25,1.1.77a8.06,8.06,0,0,1,2.69,5.05A2.58,2.58,0,0,1,139.53,304.07Z"/><path class="cls-11" d="M158.38,308.05V308a3.53,3.53,0,0,0-.61-2,3.15,3.15,0,0,0-.84-.74,6.62,6.62,0,0,0-3.47-.79c-1,0-1.7,0-2.11,0-.65-.08-1-.9-1.13-2.48a43.61,43.61,0,0,1,.18-5.55,90.64,90.64,0,0,0,.3-10.3l0-.49q-.31-5-1.93-6.91a2.66,2.66,0,0,0-2.14-1.27,4.25,4.25,0,0,0-.91.24,2.87,2.87,0,0,0-1.1.66,5,5,0,0,0-.75,1.3l-.53,1.31.3,4.63,0,.45q.23,3.58,1,8.57c.51,3.33.82,5.56.95,6.69l.36,3.5-1,.33a5.3,5.3,0,0,0-1.44.67,4.54,4.54,0,0,0-1.07,1,3.5,3.5,0,0,0-.83,2.43,1.88,1.88,0,0,0,.05.33,3,3,0,0,0,.58,1.3,2.77,2.77,0,0,0,1.46,1.18,13.11,13.11,0,0,0,3.36.05q2.1-.13,3.54-.27,6.19-.49,6.66-.78C158.07,310.51,158.44,309.52,158.38,308.05Z"/><path class="cls-11" d="M173.72,299.4a.66.66,0,0,0-.21-.55.17.17,0,0,0-.13,0c-.26,0-1.17.93-2.72,2.72a41.28,41.28,0,0,1-3.41,3.63l-.11.09a4.14,4.14,0,0,1-2.23,1.09l-.44,0a1.41,1.41,0,0,1-1.22-.58,9,9,0,0,1-1.51-4.48l-.27-2.05,1.35-.21a9.06,9.06,0,0,0,1.41-.33,9.22,9.22,0,0,0,4.35-2.88,14.78,14.78,0,0,0,3.19-7.08,17,17,0,0,0,.25-4.42,11,11,0,0,0-.71-3.51,6.43,6.43,0,0,0-5.31-4.06,8,8,0,0,0-1.67-.15,6.9,6.9,0,0,0-1.44.26q-3.66,1-5.82,6a23.53,23.53,0,0,0-1.57,5.44,36.39,36.39,0,0,0-.48,6.81c0,.38,0,.93.06,1.66a28.14,28.14,0,0,0,1.44,7.47c.13.36.26.71.41,1.05a13.56,13.56,0,0,0,1.45,2.71,9.16,9.16,0,0,0,1.2,1.45,6.59,6.59,0,0,0,2.33,1.52,6,6,0,0,0,2.62.5,3.64,3.64,0,0,0,1.56-.32l.34-.2.61-.35.66-.35a7.46,7.46,0,0,0,1.5-1.08,14.46,14.46,0,0,0,3.28-5.11A11.73,11.73,0,0,0,173.72,299.4Zm-10.87-11.83c.67-1.62,1.35-2.46,2-2.5a.65.65,0,0,1,.31.06,3.21,3.21,0,0,1,.87,1.36,6.68,6.68,0,0,1,.44,2,5.58,5.58,0,0,1-.75,3.35,3,3,0,0,1-2.41,1.52c-.55,0-.91-.08-1.07-.33a2.48,2.48,0,0,1-.29-1.17A9.88,9.88,0,0,1,162.85,287.57Z"/><path class="cls-11" d="M193.37,306.08c-.05-.77-.2-2.18-.45-4.25-.12-.94-.26-2-.42-3.22q-.92-6.84-1.45-13.71c-.22-3.06-.38-5-.47-5.68a4.52,4.52,0,0,0-.53-1.77,4.19,4.19,0,0,0-2.62-1.9,2.85,2.85,0,0,0-1.06-.19,2,2,0,0,0-1.27.78,6.28,6.28,0,0,0-1.4,3.26c-.29,1.54-.5,2.91-.61,4.12s-.27,1.82-.48,1.84-.73-1-1.42-3.08a28.07,28.07,0,0,0-1.41-3.56q-1.56-3.06-3.92-2.91a2.85,2.85,0,0,0-2.43,1.74,6.16,6.16,0,0,0-.19,2.56,62.94,62.94,0,0,0,.88,6.27,121.42,121.42,0,0,1,1.37,13.15q.39,6.14.55,7.66a4.88,4.88,0,0,0,.46,1.94,1.92,1.92,0,0,0,1.84.72,4.66,4.66,0,0,0,.7-.09,3.21,3.21,0,0,0,2.38-1.91,6.64,6.64,0,0,0,.18-2.56c0-.2-.11-1.38-.31-3.54l-.47-5.29.54,1.59a8.67,8.67,0,0,0,.95,2.14,1.21,1.21,0,0,0,1.11.5,2.17,2.17,0,0,0,1.47-.93,4.65,4.65,0,0,0,1-1.73,10.87,10.87,0,0,0,.19-2.56c-.06-1.44,0-2.16.21-2.17a.23.23,0,0,1,.18.07,59.23,59.23,0,0,1,.64,7.17q.32,5.08.46,6.19a4.74,4.74,0,0,0,.41,1.58.83.83,0,0,0,.07.13,1.91,1.91,0,0,0,1.38,1.05,2.34,2.34,0,0,0,.62.05,3.62,3.62,0,0,0,2.2-1,3,3,0,0,0,1.12-2v-.17A1.17,1.17,0,0,0,193.37,306.08Z"/></g></g></svg>