<?xml version="1.0" encoding="UTF-8"?><svg xmlns="http://www.w3.org/2000/svg" viewBox="0 0 245.06 61.27"><g id="a"/><g id="b"><g id="c"><path d="M.5,1.96c.27-.79,.8-1.18,.8-1.18,.57-.41,1.24-.42,1.6-.39,71.55-.13,143.1-.26,214.64-.39,4.81,4.69,9.76,9.78,14.76,15.3,4.61,5.08,8.86,10.07,12.77,14.91-2.92,3.27-5.85,6.54-8.78,9.81-6.36,7.08-12.74,14.15-19.15,21.19-42.99-1.36-76.94-1.41-100.54-1.18-11.58,.11-29.15,.42-66.23,.78-19.67,.2-35.86,.32-46.68,.39-.3,.05-1.35,.21-2.39-.39-.66-.38-1.03-.9-1.2-1.18-.03-13.18-.06-26.37-.1-39.55,.2-.51,.42-1.2,.5-2.03,.13-1.37-.17-2.49-.4-3.14C-.08,8.17,.08,3.18,.5,1.96Z"/></g></g></svg>