<?xml version="1.0" encoding="UTF-8"?><svg xmlns="http://www.w3.org/2000/svg" viewBox="0 0 245.06 61.27"><g id="a"/><g id="b"><g id="c"><path d="M.02,1.75c.05-.18,.23-.84,.88-1.31C1.45,.04,2.02,0,2.23,0,36.31,.5,70.39,.79,104.47,.88c36.43,.09,72.86-.06,109.3-.44,.57,.03,1.34,.13,2.2,.44,.74,.26,1.33,.59,1.76,.88,4.83,5.44,9.17,9.27,12.34,11.82,3,2.41,5.68,5.21,8.81,7.44,3.12,2.21,6.25,4.03,6.17,6.56-.03,1.03-.58,1.77-.88,2.19-2.48,3.41-4.22,7.37-7.05,10.5-3.63,4.02-9.47,11.1-17.63,21.01H1.79c-.27-.07-.58-.2-.88-.44C-.18,59.95,0,58.36,.02,58.2v-12.69c2.02-.54,3.58-2.07,3.97-3.94,.51-2.48-1.12-5.22-3.97-6.13V1.75Z"/></g></g></svg>